SplineFontDB: 3.2
FontName: Vividly-Regular
FullName: Vividly Regular
FamilyName: Vividly
Weight: Book
Version: 001.003
ItalicAngle: 0
UnderlinePosition: -150
UnderlineWidth: 50
Ascent: 800
Descent: 200
InvalidEm: 0
sfntRevision: 0x00010000
LayerCount: 2
Layer: 0 1 "Back" 1
Layer: 1 1 "Fore" 0
XUID: [1021 383 -139292899 13151]
StyleMap: 0x0040
FSType: 0
OS2Version: 4
OS2_WeightWidthSlopeOnly: 0
OS2_UseTypoMetrics: 0
CreationTime: 1602567363
ModificationTime: 1712528802
PfmFamily: 17
TTFWeight: 400
TTFWidth: 5
LineGap: 90
VLineGap: 0
Panose: 2 0 5 3 0 0 0 0 0 0
OS2TypoAscent: 800
OS2TypoAOffset: 0
OS2TypoDescent: -200
OS2TypoDOffset: 0
OS2TypoLinegap: 90
OS2WinAscent: 666
OS2WinAOffset: 0
OS2WinDescent: 47
OS2WinDOffset: 0
HheadAscent: 666
HheadAOffset: 0
HheadDescent: -47
HheadDOffset: 0
OS2SubXSize: 650
OS2SubYSize: 700
OS2SubXOff: 0
OS2SubYOff: 140
OS2SupXSize: 650
OS2SupYSize: 700
OS2SupXOff: 0
OS2SupYOff: 480
OS2StrikeYSize: 49
OS2StrikeYPos: 258
OS2CapHeight: 598
OS2XHeight: 473
OS2Vendor: 'CLGR'
OS2CodePages: 00000001.00000000
OS2UnicodeRanges: 00000003.00000000.00000000.00000000
DEI: 91125
TtTable: prep
PUSHW_1
 511
SCANCTRL
PUSHB_1
 4
SCANTYPE
EndTTInstrs
ShortTable: cvt  2
  33
  633
EndShort
ShortTable: maxp 16
  1
  0
  81
  120
  3
  0
  0
  2
  0
  1
  1
  0
  64
  0
  0
  0
EndShort
LangName: 1033 "" "" "" "Calligraphr : Vividly Regular : 13-10-2020" "" "Version 001.003" "" "" "" "" "Created with Calligraphr.com" "" "" "" "" "" "Vividly" "Regular"
GaspTable: 1 65535 15 1
Encoding: UnicodeBmp
UnicodeInterp: none
NameList: AGL For New Fonts
DisplaySize: -48
AntiAlias: 1
FitToEm: 0
WinInfo: 16 16 4
BeginChars: 65538 83

StartChar: .notdef
Encoding: 65536 -1 0
Width: 364
GlyphClass: 1
Flags: W
LayerCount: 2
Fore
SplineSet
33 0 m 1,0,-1
 33 666 l 1,1,-1
 298 666 l 1,2,-1
 298 0 l 1,3,-1
 33 0 l 1,0,-1
66 33 m 1,4,-1
 265 33 l 1,5,-1
 265 633 l 1,6,-1
 66 633 l 1,7,-1
 66 33 l 1,4,-1
EndSplineSet
Validated: 1
EndChar

StartChar: exclam
Encoding: 33 33 5
Width: 203
GlyphClass: 1
Flags: W
LayerCount: 2
Fore
SplineSet
87 201 m 0,0,1
 98 213 98 213 114 213 c 0,2,3
 131 213 131 213 142 199 c 0,4,5
 152 188 152 188 152 174 c 0,6,7
 152 150 152 150 125 141 c 0,8,9
 118 138 118 138 111 138 c 0,10,11
 96 138 96 138 86 148.5 c 128,-1,12
 76 159 76 159 76 174 c 0,13,14
 76 190 76 190 87 201 c 0,0,1
60 563 m 128,-1,16
 70 573 70 573 87 573 c 128,-1,17
 104 573 104 573 115 562 c 0,18,19
 122 555 122 555 124 533 c 128,-1,20
 126 511 126 511 130 424 c 0,21,22
 133 352 133 352 133 323 c 0,23,24
 133 292 133 292 129 284 c 0,25,26
 118 263 118 263 98 263 c 0,27,28
 81 263 81 263 67 276 c 2,29,-1
 52 289 l 1,30,-1
 51 421 l 2,31,32
 50 454 50 454 50 498 c 0,33,15
 50 553 50 553 60 563 c 128,-1,16
EndSplineSet
Validated: 1
EndChar

StartChar: quotedbl
Encoding: 34 34 6
Width: 315
GlyphClass: 1
Flags: W
LayerCount: 2
Fore
SplineSet
209 584 m 0,0,1
 215 587 215 587 221 587 c 0,2,3
 235 587 235 587 253 572 c 0,4,5
 260 565 260 565 262 554.5 c 128,-1,6
 264 544 264 544 264 509 c 0,7,8
 264 462 264 462 256.5 448 c 128,-1,9
 249 434 249 434 224 434 c 0,10,11
 201 434 201 434 194 446.5 c 128,-1,12
 187 459 187 459 186 504 c 2,13,-1
 186 516 l 2,14,15
 186 575 186 575 209 584 c 0,0,1
63 578 m 128,-1,17
 73 588 73 588 89 588 c 128,-1,18
 105 588 105 588 118 577 c 0,19,20
 126 569 126 569 128 560.5 c 128,-1,21
 130 552 130 552 130 526 c 0,22,23
 130 491 130 491 122 478 c 128,-1,24
 114 465 114 465 92 465 c 0,25,26
 71 465 71 465 62 480 c 128,-1,27
 53 495 53 495 53 530 c 0,28,16
 53 568 53 568 63 578 c 128,-1,17
EndSplineSet
Validated: 1
EndChar

StartChar: numbersign
Encoding: 35 35 7
Width: 538
GlyphClass: 1
Flags: W
LayerCount: 2
Fore
SplineSet
273 370 m 2,0,-1
 273 377 l 2,1,2
 273 386 273 386 268.5 389 c 128,-1,3
 264 392 264 392 244 398 c 0,4,5
 226 403 226 403 220 403 c 0,6,7
 209 403 209 403 209 378 c 0,8,9
 209 369 209 369 213.5 365.5 c 128,-1,10
 218 362 218 362 238 356 c 0,11,12
 262 349 262 349 269 349 c 2,13,-1
 270 349 l 2,14,15
 271 351 271 351 273 370 c 2,0,-1
175 573 m 0,16,17
 184 577 184 577 191 577 c 0,18,19
 200 577 200 577 214 563 c 0,20,21
 229 548 229 548 229 532 c 0,22,23
 229 530 229 530 228.5 525.5 c 128,-1,24
 228 521 228 521 228 518 c 2,25,-1
 227 489 l 1,26,-1
 257 479 l 2,27,28
 280 472 280 472 287 472 c 2,29,-1
 290 473 l 2,30,31
 292 474 292 474 296 511 c 0,32,33
 299 542 299 542 307.5 555 c 128,-1,34
 316 568 316 568 333 568 c 0,35,36
 357 568 357 568 367 555.5 c 128,-1,37
 377 543 377 543 377 513 c 0,38,39
 377 498 377 498 376 489 c 2,40,-1
 373 447 l 1,41,-1
 417 432 l 2,42,43
 483 409 483 409 483 380 c 0,44,45
 483 368 483 368 469 354 c 0,46,47
 457 342 457 342 443 342 c 0,48,49
 434 342 434 342 402 352 c 0,50,51
 369 362 369 362 363 362 c 0,52,53
 353 362 353 362 353 351 c 0,54,55
 353 344 353 344 351 335.5 c 128,-1,56
 349 327 349 327 349 325 c 0,57,58
 349 316 349 316 370 311 c 0,59,60
 409 302 409 302 409 273 c 0,61,62
 409 258 409 258 397 245 c 0,63,64
 384 231 384 231 369 231 c 2,65,-1
 364 231 l 1,66,-1
 354 231 l 2,67,68
 346 231 346 231 344.5 228.5 c 128,-1,69
 343 226 343 226 343 214 c 0,70,71
 343 191 343 191 330.5 176 c 128,-1,72
 318 161 318 161 301 161 c 0,73,74
 286 161 286 161 273 174 c 0,75,76
 265 182 265 182 262.5 190.5 c 128,-1,77
 260 199 260 199 260 224 c 2,78,-1
 260 262 l 1,79,-1
 239 271 l 2,80,81
 209 282 209 282 203 282 c 128,-1,82
 197 282 197 282 194.5 276.5 c 128,-1,83
 192 271 192 271 189 253 c 0,84,85
 179 197 179 197 144 197 c 0,86,87
 127 197 127 197 116 211 c 0,88,89
 107 223 107 223 107 237 c 0,90,91
 107 249 107 249 108 258 c 0,92,93
 112 293 112 293 114 298 c 0,94,95
 115 301 115 301 110.5 304 c 128,-1,96
 106 307 106 307 96 310 c 0,97,98
 79 314 79 314 66.5 327 c 128,-1,99
 54 340 54 340 54 352 c 0,100,101
 54 361 54 361 66 375 c 0,102,103
 77 389 77 389 103 390 c 2,104,-1
 129 390 l 1,105,-1
 132 412 l 2,106,107
 133 418 133 418 133 426 c 128,-1,108
 133 434 133 434 122 440 c 0,109,110
 85 455 85 455 85 487 c 0,111,112
 85 502 85 502 96 512 c 128,-1,113
 107 522 107 522 126 522 c 0,114,115
 139 522 139 522 143 524 c 128,-1,116
 147 526 147 526 147 534 c 0,117,118
 147 545 147 545 155.5 556.5 c 128,-1,119
 164 568 164 568 175 573 c 0,16,17
EndSplineSet
Validated: 1
EndChar

StartChar: ampersand
Encoding: 38 38 8
Width: 492
GlyphClass: 1
Flags: W
LayerCount: 2
Fore
SplineSet
216 195 m 0,0,1
 216 203 216 203 194.5 246.5 c 128,-1,2
 173 290 173 290 170 290 c 0,3,4
 164 290 164 290 149 269.5 c 128,-1,5
 134 249 134 249 131 237 c 0,6,7
 130 234 130 234 130 228 c 0,8,9
 130 210 130 210 144.5 198.5 c 128,-1,10
 159 187 159 187 181 187 c 0,11,12
 182 187 182 187 186 187.5 c 128,-1,13
 190 188 190 188 192 188 c 0,14,15
 216 192 216 192 216 195 c 0,0,1
217 517 m 0,16,17
 208 534 208 534 204 535 c 2,18,-1
 203 535 l 2,19,20
 196 535 196 535 178 525.5 c 128,-1,21
 160 516 160 516 160 512 c 0,22,23
 160 505 160 505 171.5 475.5 c 128,-1,24
 183 446 183 446 187 442 c 0,25,26
 188 441 188 441 190 441 c 0,27,28
 196 441 196 441 206 454 c 128,-1,29
 216 467 216 467 221 483 c 0,30,31
 223 488 223 488 223 497 c 0,32,33
 223 505 223 505 217 517 c 0,16,17
173 612 m 0,34,35
 193 618 193 618 207 618 c 0,36,37
 236 618 236 618 263 592 c 0,38,39
 304 553 304 553 304 502 c 0,40,41
 304 446 304 446 256 384 c 2,42,-1
 232 352 l 1,43,-1
 258 300 l 2,44,45
 284 248 284 248 288 248 c 0,46,47
 299 248 299 248 345 311 c 0,48,49
 374 350 374 350 398 350 c 0,50,51
 404 350 404 350 412 347 c 0,52,53
 437 336 437 336 437 311 c 0,54,55
 437 305 437 305 436 303 c 0,56,57
 432 291 432 291 400.5 249 c 128,-1,58
 369 207 369 207 349 187 c 2,59,-1
 326 164 l 1,60,-1
 336 139 l 2,61,62
 346 111 346 111 346 104 c 0,63,64
 346 93 346 93 332.5 80.5 c 128,-1,65
 319 68 319 68 306 68 c 0,66,67
 281 69 281 69 266 99 c 0,68,69
 255 117 255 117 252 118 c 0,70,71
 248 118 248 118 227 112 c 0,72,73
 203 106 203 106 180 106 c 0,74,75
 130 106 130 106 92 136 c 0,76,77
 52 169 52 169 52 226 c 0,78,79
 52 259 52 259 61.5 281 c 128,-1,80
 71 303 71 303 100 337 c 2,81,-1
 130 372 l 1,82,-1
 117 396 l 2,83,84
 103 423 103 423 90.5 460.5 c 128,-1,85
 78 498 78 498 78 511 c 0,86,87
 78 543 78 543 103.5 570.5 c 128,-1,88
 129 598 129 598 173 612 c 0,34,35
EndSplineSet
Validated: 1
EndChar

StartChar: quotesingle
Encoding: 39 39 9
Width: 193
GlyphClass: 1
Flags: W
LayerCount: 2
Fore
SplineSet
65 591 m 0,0,1
 78 604 78 604 93 604 c 128,-1,2
 108 604 108 604 118 592 c 0,3,4
 126 583 126 583 129 567 c 128,-1,5
 132 551 132 551 136 499 c 2,6,-1
 142 418 l 1,7,-1
 128 405 l 2,8,9
 114 393 114 393 106 393 c 0,10,11
 96 393 96 393 82 401.5 c 128,-1,12
 68 410 68 410 65 418 c 0,13,14
 61 430 61 430 56.5 475 c 128,-1,15
 52 520 52 520 52 546 c 0,16,17
 52 579 52 579 65 591 c 0,0,1
EndSplineSet
Validated: 1
EndChar

StartChar: parenleft
Encoding: 40 40 10
Width: 367
GlyphClass: 1
Flags: W
LayerCount: 2
Fore
SplineSet
197 628 m 0,0,1
 209 633 209 633 224 633 c 0,2,3
 243 633 243 633 254.5 622.5 c 128,-1,4
 266 612 266 612 266 594 c 0,5,6
 266 577 266 577 258.5 569 c 128,-1,7
 251 561 251 561 223 547 c 0,8,9
 198 535 198 535 176 504 c 128,-1,10
 154 473 154 473 141 432 c 0,11,12
 129 394 129 394 129 329 c 0,13,14
 129 269 129 269 139 233 c 0,15,16
 168 117 168 117 268 52 c 0,17,18
 310 26 310 26 310 4 c 0,19,20
 310 -3 310 -3 305 -13 c 0,21,22
 294 -35 294 -35 273 -35 c 0,23,24
 248 -35 248 -35 206 -5 c 0,25,26
 108 64 108 64 69 181 c 0,27,28
 58 215 58 215 54.5 236 c 128,-1,29
 51 257 51 257 50 313 c 2,30,-1
 50 340 l 2,31,32
 50 434 50 434 82 506 c 0,33,34
 102 550 102 550 133 583 c 128,-1,35
 164 616 164 616 197 628 c 0,0,1
EndSplineSet
Validated: 1
EndChar

StartChar: parenright
Encoding: 41 41 11
Width: 375
GlyphClass: 1
Flags: W
LayerCount: 2
Fore
SplineSet
132 631 m 0,0,1
 134 632 134 632 141 632 c 0,2,3
 161 632 161 632 195 616 c 0,4,5
 232 598 232 598 266 547 c 128,-1,6
 300 496 300 496 314 438 c 0,7,8
 323 401 323 401 323 327 c 0,9,10
 323 243 323 243 312 199 c 0,11,12
 285 97 285 97 216 28 c 0,13,14
 141 -47 141 -47 95 -47 c 0,15,16
 70 -47 70 -47 59 -20 c 0,17,18
 57 -16 57 -16 57 -8 c 0,19,20
 57 15 57 15 102 45 c 0,21,22
 238 136 238 136 240 331 c 0,23,24
 240 401 240 401 211.5 463 c 128,-1,25
 183 525 183 525 143 543 c 0,26,27
 101 562 101 562 101 590 c 0,28,29
 101 619 101 619 132 631 c 0,0,1
EndSplineSet
Validated: 1
EndChar

StartChar: comma
Encoding: 44 44 12
Width: 211
GlyphClass: 1
Flags: W
LayerCount: 2
Fore
SplineSet
83 181 m 128,-1,1
 96 191 96 191 109 191 c 0,2,3
 130 191 130 191 143.5 168 c 128,-1,4
 157 145 157 145 157 108 c 0,5,6
 157 77 157 77 142 52 c 0,7,8
 119 16 119 16 92 16 c 0,9,10
 79 16 79 16 66.5 28 c 128,-1,11
 54 40 54 40 54 52 c 0,12,13
 54 65 54 65 67 87 c 0,14,15
 77 104 77 104 77 113 c 0,16,17
 77 116 77 116 75 122 c 0,18,19
 70 139 70 139 70 149 c 0,20,0
 70 171 70 171 83 181 c 128,-1,1
EndSplineSet
Validated: 1
EndChar

StartChar: hyphen
Encoding: 45 45 13
Width: 317
GlyphClass: 1
Flags: W
LayerCount: 2
Fore
SplineSet
137 346 m 4,0,1
 158 351 158 351 188 351 c 4,2,3
 251 351 251 351 260 328 c 4,4,5
 264 319 264 319 264 308 c 4,6,7
 264 291 264 291 251 280.5 c 132,-1,8
 238 270 238 270 215 270 c 6,9,-1
 210 270 l 5,10,-1
 203 270 l 6,11,12
 181 270 181 270 133 264 c 4,13,14
 100 259 100 259 92 259 c 4,15,16
 80 259 80 259 68 268 c 4,17,18
 51 280 51 280 51 301 c 4,19,20
 51 319 51 319 65 330 c 4,21,22
 79 340 79 340 98 342 c 4,23,24
 115 342 115 342 137 346 c 4,0,1
EndSplineSet
Validated: 1
EndChar

StartChar: period
Encoding: 46 46 14
Width: 214
GlyphClass: 1
Flags: W
LayerCount: 2
Fore
SplineSet
72 200 m 128,-1,1
 90 218 90 218 111 218 c 0,2,3
 139 218 139 218 155 187 c 0,4,5
 162 173 162 173 162 157 c 0,6,7
 162 136 162 136 150 121 c 0,8,9
 139 108 139 108 121 108 c 2,10,-1
 110 108 l 2,11,12
 54 111 54 111 54 160 c 0,13,0
 54 182 54 182 72 200 c 128,-1,1
EndSplineSet
Validated: 1
EndChar

StartChar: slash
Encoding: 47 47 15
Width: 381
GlyphClass: 1
Flags: W
LayerCount: 2
Fore
SplineSet
265 578 m 0,0,1
 275 583 275 583 287 583 c 0,2,3
 298 583 298 583 305 580 c 0,4,5
 313 577 313 577 319.5 564.5 c 128,-1,6
 326 552 326 552 326 541 c 0,7,8
 326 536 326 536 325 534 c 0,9,10
 321 518 321 518 264.5 404.5 c 128,-1,11
 208 291 208 291 176 234 c 128,-1,12
 144 177 144 177 126 156 c 128,-1,13
 108 135 108 135 92 135 c 128,-1,14
 76 135 76 135 66 145 c 0,15,16
 55 156 55 156 55 168 c 0,17,18
 55 189 55 189 99 266 c 0,19,20
 146 350 146 350 199 458 c 0,21,22
 254 571 254 571 265 578 c 0,0,1
EndSplineSet
Validated: 1
EndChar

StartChar: zero
Encoding: 48 48 16
Width: 411
GlyphClass: 1
Flags: W
LayerCount: 2
Fore
SplineSet
234 480 m 0,0,1
 211 487 211 487 206 487 c 0,2,3
 198 487 198 487 178 475 c 0,4,5
 152 458 152 458 141.5 434.5 c 128,-1,6
 131 411 131 411 131 366 c 2,7,-1
 131 359 l 2,8,9
 132 236 132 236 199 236 c 0,10,11
 239 236 239 236 266 289 c 0,12,13
 280 318 280 318 280 362 c 0,14,15
 280 405 280 405 276 425 c 0,16,17
 272 441 272 441 259 458 c 128,-1,18
 246 475 246 475 234 480 c 0,0,1
175 565 m 0,19,20
 190 571 190 571 209 571 c 2,21,-1
 214 571 l 1,22,23
 262 563 262 563 292 542 c 128,-1,24
 322 521 322 521 341 481 c 0,25,26
 354 455 354 455 356 441.5 c 128,-1,27
 358 428 358 428 358 370 c 128,-1,28
 358 312 358 312 356 297.5 c 128,-1,29
 354 283 354 283 341 256 c 0,30,31
 295 156 295 156 197 156 c 0,32,33
 128 156 128 156 90 207 c 0,34,35
 70 234 70 234 62 263 c 128,-1,36
 54 292 54 292 52 347 c 0,37,38
 51 362 51 362 51 384 c 0,39,40
 51 415 51 415 61 449 c 0,41,42
 86 533 86 533 175 565 c 0,19,20
EndSplineSet
Validated: 1
EndChar

StartChar: one
Encoding: 49 49 17
Width: 195
GlyphClass: 1
Flags: W
LayerCount: 2
Fore
SplineSet
69 531 m 0,0,1
 78 542 78 542 95 542 c 0,2,3
 121 542 121 542 132.5 513.5 c 128,-1,4
 144 485 144 485 144 417 c 0,5,6
 144 365 144 365 136 266 c 0,7,8
 130 193 130 193 127 176.5 c 128,-1,9
 124 160 124 160 115 152 c 0,10,11
 102 141 102 141 90 141 c 0,12,13
 76 141 76 141 63 154 c 2,14,-1
 50 167 l 1,15,-1
 55 235 l 2,16,17
 57 264 57 264 59 411 c 0,18,19
 59 486 59 486 60.5 504.5 c 128,-1,20
 62 523 62 523 69 531 c 0,0,1
EndSplineSet
Validated: 1
EndChar

StartChar: two
Encoding: 50 50 18
Width: 395
GlyphClass: 1
Flags: W
LayerCount: 2
Fore
SplineSet
140 555 m 0,0,1
 167 563 167 563 188 563 c 0,2,3
 256 563 256 563 280 505 c 0,4,5
 290 481 290 481 290 457 c 0,6,7
 290 454 290 454 289.5 447 c 128,-1,8
 289 440 289 440 289 435 c 0,9,10
 287 395 287 395 272.5 361.5 c 128,-1,11
 258 328 258 328 223 280 c 0,12,13
 195 241 195 241 195 237 c 128,-1,14
 195 233 195 233 252 233 c 0,15,16
 295 233 295 233 312 228 c 128,-1,17
 329 223 329 223 336 209 c 0,18,19
 341 197 341 197 341 190 c 0,20,21
 341 177 341 177 328 164 c 0,22,23
 318 155 318 155 309.5 153 c 128,-1,24
 301 151 301 151 272 151 c 0,25,26
 174 153 174 153 104 164 c 0,27,28
 79 169 79 169 67 182 c 0,29,30
 53 196 53 196 53 209 c 0,31,32
 53 224 53 224 70 240 c 0,33,34
 144 309 144 309 171 350 c 0,35,36
 210 408 210 408 210 447 c 0,37,38
 210 453 210 453 208 461 c 0,39,40
 206 471 206 471 203 474 c 128,-1,41
 200 477 200 477 191 477 c 2,42,-1
 183 477 l 2,43,44
 161 477 161 477 141 458 c 128,-1,45
 121 439 121 439 100 439 c 0,46,47
 77 439 77 439 68 463 c 0,48,49
 66 471 66 471 66 475 c 0,50,51
 66 498 66 498 87.5 521.5 c 128,-1,52
 109 545 109 545 140 555 c 0,0,1
EndSplineSet
Validated: 1
EndChar

StartChar: three
Encoding: 51 51 19
Width: 381
GlyphClass: 1
Flags: W
LayerCount: 2
Fore
SplineSet
127 596 m 0,0,1
 151 603 151 603 163 603 c 0,2,3
 174 603 174 603 196 596 c 0,4,5
 221 589 221 589 244.5 568 c 128,-1,6
 268 547 268 547 277 524 c 0,7,8
 284 503 284 503 284 480 c 0,9,10
 284 440 284 440 270 415 c 2,11,-1
 258 396 l 1,12,-1
 273 386 l 2,13,14
 288 375 288 375 302 359 c 0,15,16
 326 334 326 334 326 295 c 0,17,18
 326 255 326 255 299.5 216 c 128,-1,19
 273 177 273 177 229 155 c 0,20,21
 207 144 207 144 194 141 c 128,-1,22
 181 138 181 138 153 138 c 0,23,24
 83 138 83 138 62 173 c 0,25,26
 53 188 53 188 53 202 c 0,27,28
 53 218 53 218 65 230 c 128,-1,29
 77 242 77 242 91 242 c 0,30,31
 104 242 104 242 119 230 c 0,32,33
 135 217 135 217 155 217 c 0,34,35
 193 217 193 217 224 254 c 0,36,37
 243 276 243 276 243 292 c 0,38,39
 243 305 243 305 230 315 c 0,40,41
 220 323 220 323 195.5 329.5 c 128,-1,42
 171 336 171 336 152 336 c 0,43,44
 137 336 137 336 125.5 348 c 128,-1,45
 114 360 114 360 114 374 c 0,46,47
 115 390 115 390 122.5 399 c 128,-1,48
 130 408 130 408 155 421 c 0,49,50
 207 449 207 449 207 483 c 0,51,52
 207 496 207 496 197 506 c 0,53,54
 183 520 183 520 166 520 c 0,55,56
 153 520 153 520 132 512 c 0,57,58
 106 502 106 502 95 502 c 0,59,60
 83 502 83 502 71 514 c 0,61,62
 58 527 58 527 58 541 c 0,63,64
 58 556 58 556 76 573 c 0,65,66
 94 589 94 589 98 589 c 0,67,68
 99 589 99 589 103 590 c 128,-1,69
 107 591 107 591 114 592.5 c 128,-1,70
 121 594 121 594 127 596 c 0,0,1
EndSplineSet
Validated: 1
EndChar

StartChar: four
Encoding: 52 52 20
Width: 407
GlyphClass: 1
Flags: W
LayerCount: 2
Fore
SplineSet
67 548 m 2,0,1
 81 562 81 562 92 562 c 0,2,3
 102 562 102 562 116 551 c 0,4,5
 138 532 138 532 139 437 c 0,6,7
 141 388 141 388 145 384 c 0,8,9
 152 377 152 377 212 377 c 2,10,-1
 273 377 l 1,11,-1
 273 410 l 2,12,13
 273 438 273 438 267 486 c 0,14,15
 264 509 264 509 264 518 c 0,16,17
 264 529 264 529 272 542 c 0,18,19
 284 558 284 558 304 558 c 0,20,21
 326 558 326 558 337 538 c 0,22,23
 344 525 344 525 350 479 c 128,-1,24
 356 433 356 433 356 394 c 0,25,26
 356 346 356 346 347 274.5 c 128,-1,27
 338 203 338 203 330 189 c 0,28,29
 324 179 324 179 318.5 176.5 c 128,-1,30
 313 174 313 174 299 174 c 0,31,32
 275 174 275 174 266 187 c 0,33,34
 259 197 259 197 259 208 c 0,35,36
 259 221 259 221 263 246 c 0,37,38
 264 252 264 252 264.5 258.5 c 128,-1,39
 265 265 265 265 265.5 268.5 c 128,-1,40
 266 272 266 272 266.5 276 c 128,-1,41
 267 280 267 280 267 282 c 0,42,43
 267 292 267 292 262 295 c 0,44,45
 260 297 260 297 239 297 c 128,-1,46
 218 297 218 297 206 296 c 0,47,48
 198 295 198 295 183 295 c 0,49,50
 116 295 116 295 83 328 c 0,51,52
 68 343 68 343 62.5 370 c 128,-1,53
 57 397 57 397 55 468 c 2,54,-1
 53 534 l 1,55,-1
 67 548 l 2,0,1
EndSplineSet
Validated: 1
EndChar

StartChar: five
Encoding: 53 53 21
Width: 460
GlyphClass: 1
Flags: W
LayerCount: 2
Fore
SplineSet
151 579 m 128,-1,1
 161 581 161 581 261 581 c 0,2,3
 330 581 330 581 347.5 579.5 c 128,-1,4
 365 578 365 578 373 571 c 0,5,6
 384 560 384 560 384 547 c 0,7,8
 384 516 384 516 363 507.5 c 128,-1,9
 342 499 342 499 262 497 c 2,10,-1
 178 495 l 1,11,-1
 178 428 l 1,12,-1
 210 432 l 2,13,14
 237 436 237 436 264 436 c 0,15,16
 323 436 323 436 361 402 c 0,17,18
 407 359 407 359 407 294 c 0,19,20
 407 268 407 268 396 243 c 128,-1,21
 385 218 385 218 355.5 190.5 c 128,-1,22
 326 163 326 163 292 146 c 0,23,24
 253 128 253 128 203 126 c 0,25,26
 195 125 195 125 179 125 c 0,27,28
 149 125 149 125 134 130 c 0,29,30
 106 139 106 139 80 170 c 128,-1,31
 54 201 54 201 54 225 c 0,32,33
 54 238 54 238 67 251 c 128,-1,34
 80 264 80 264 93 264 c 0,35,36
 116 264 116 264 136 231 c 0,37,38
 147 214 147 214 162 207 c 0,39,40
 171 203 171 203 186 203 c 0,41,42
 223 203 223 203 266.5 226.5 c 128,-1,43
 310 250 310 250 322 279 c 0,44,45
 325 287 325 287 325 297 c 0,46,47
 325 327 325 327 306 344 c 0,48,49
 296 354 296 354 259 354 c 0,50,51
 218 354 218 354 179 342 c 0,52,53
 149 334 149 334 139 334 c 0,54,55
 125 334 125 334 111 349 c 0,56,57
 103 358 103 358 101 372 c 128,-1,58
 99 386 99 386 98 443 c 2,59,-1
 98 524 l 1,60,-1
 120 551 l 2,61,0
 141 577 141 577 151 579 c 128,-1,1
EndSplineSet
Validated: 1
EndChar

StartChar: six
Encoding: 54 54 22
Width: 445
GlyphClass: 1
Flags: W
LayerCount: 2
Fore
SplineSet
296 279 m 0,0,1
 281 290 281 290 269 290 c 0,2,3
 245 289 245 289 218 269 c 128,-1,4
 191 249 191 249 191 232 c 0,5,6
 191 216 191 216 233 216 c 2,7,-1
 240 216 l 2,8,9
 270 217 270 217 289.5 229 c 128,-1,10
 309 241 309 241 309 256 c 0,11,12
 309 269 309 269 296 279 c 0,0,1
192 584 m 0,13,14
 209 588 209 588 221 588 c 128,-1,15
 233 588 233 588 260 581 c 0,16,17
 283 575 283 575 310 557.5 c 128,-1,18
 337 540 337 540 348 525 c 0,19,20
 355 515 355 515 355 502 c 0,21,22
 355 486 355 486 343.5 474 c 128,-1,23
 332 462 332 462 316 462 c 0,24,25
 311 462 311 462 303 464 c 0,26,27
 290 469 290 469 270 485 c 0,28,29
 247 505 247 505 222 505 c 0,30,31
 210 505 210 505 202 501 c 0,32,33
 172 488 172 488 151 446.5 c 128,-1,34
 130 405 130 405 130 359 c 0,35,36
 130 346 130 346 131 339 c 2,37,-1
 135 310 l 1,38,-1
 157 329 l 2,39,40
 204 367 204 367 269 367 c 0,41,42
 349 367 349 367 382 297 c 0,43,44
 391 276 391 276 391 256 c 0,45,46
 391 221 391 221 367.5 190.5 c 128,-1,47
 344 160 344 160 304 146 c 0,48,49
 274 134 274 134 158 129 c 0,50,51
 142 129 142 129 125 147 c 0,52,53
 108 166 108 166 108 175 c 0,54,55
 108 183 108 183 93 207 c 0,56,57
 51 269 51 269 51 366 c 0,58,59
 51 412 51 412 62 445 c 0,60,61
 79 501 79 501 114 538 c 128,-1,62
 149 575 149 575 192 584 c 0,13,14
EndSplineSet
Validated: 1
EndChar

StartChar: seven
Encoding: 55 55 23
Width: 446
GlyphClass: 1
Flags: W
LayerCount: 2
Fore
SplineSet
65 579 m 0,0,1
 74 589 74 589 123 589 c 0,2,3
 129 589 129 589 146 588.5 c 128,-1,4
 163 588 163 588 175 588 c 0,5,6
 250 586 250 586 265 584.5 c 128,-1,7
 280 583 280 583 290 574 c 0,8,9
 307 558 307 558 307 523 c 0,10,11
 307 500 307 500 303 472 c 0,12,13
 299 441 299 441 299 420 c 0,14,15
 299 416 299 416 301 416 c 128,-1,16
 303 416 303 416 333 420 c 0,17,18
 351 423 351 423 358 423 c 0,19,20
 368 423 368 423 378 413 c 0,21,22
 391 400 391 400 391 387 c 0,23,24
 391 364 391 364 376.5 353.5 c 128,-1,25
 362 343 362 343 316 335 c 0,26,27
 293 331 293 331 287 327.5 c 128,-1,28
 281 324 281 324 279 315 c 0,29,30
 278 306 278 306 257 223 c 0,31,32
 241 160 241 160 231.5 142.5 c 128,-1,33
 222 125 222 125 203 125 c 0,34,35
 193 125 193 125 178 136 c 0,36,37
 165 146 165 146 165 166 c 0,38,39
 165 192 165 192 182 260 c 0,40,41
 199 332 199 332 199 334 c 0,42,43
 199 335 199 335 196 336.5 c 128,-1,44
 193 338 193 338 187 340.5 c 128,-1,45
 181 343 181 343 177 345 c 0,46,47
 157 355 157 355 142.5 371.5 c 128,-1,48
 128 388 128 388 128 401 c 0,49,50
 128 413 128 413 141 426 c 128,-1,51
 154 439 154 439 165 439 c 0,52,53
 179 439 179 439 194 429 c 128,-1,54
 209 419 209 419 213 419 c 0,55,56
 214 419 214 419 216.5 435 c 128,-1,57
 219 451 219 451 221.5 470 c 128,-1,58
 224 489 224 489 224 490 c 2,59,-1
 227 506 l 1,60,-1
 184 506 l 2,61,62
 85 506 85 506 66 523 c 0,63,64
 56 532 56 532 56 551 c 128,-1,65
 56 570 56 570 65 579 c 0,0,1
EndSplineSet
Validated: 1
EndChar

StartChar: eight
Encoding: 56 56 24
Width: 368
GlyphClass: 1
Flags: W
LayerCount: 2
Fore
SplineSet
205 300 m 0,0,1
 180 321 180 321 172 321 c 0,2,3
 162 321 162 321 148 293 c 128,-1,4
 134 265 134 265 134 247 c 0,5,6
 134 231 134 231 146 221.5 c 128,-1,7
 158 212 158 212 175 212 c 0,8,9
 188 212 188 212 210 221.5 c 128,-1,10
 232 231 232 231 237 238 c 0,11,12
 239 242 239 242 239 245 c 0,13,14
 239 268 239 268 205 300 c 0,0,1
218 511 m 0,15,16
 201 522 201 522 196 522 c 0,17,18
 188 522 188 522 175.5 513.5 c 128,-1,19
 163 505 163 505 158 496 c 0,20,21
 153 484 153 484 153 471 c 0,22,23
 153 441 153 441 166 428 c 0,24,25
 177 417 177 417 194 423 c 0,26,27
 208 428 208 428 221 439 c 128,-1,28
 234 450 234 450 235 460 c 0,29,30
 236 466 236 466 236 476 c 0,31,32
 236 500 236 500 218 511 c 0,15,16
138 588 m 0,33,34
 157 598 157 598 185 598 c 2,35,-1
 198 598 l 2,36,37
 237 596 237 596 263 580 c 0,38,39
 310 549 310 549 316 485 c 0,40,41
 316 482 316 482 316.5 478 c 128,-1,42
 317 474 317 474 317 471 c 0,43,44
 317 423 317 423 283 386 c 0,45,46
 265 366 265 366 265 363 c 128,-1,47
 265 360 265 360 279 344 c 0,48,49
 317 298 317 298 317 241 c 0,50,51
 317 216 317 216 308 198 c 0,52,53
 296 171 296 171 252.5 150.5 c 128,-1,54
 209 130 209 130 167 130 c 0,55,56
 139 130 139 130 113 145 c 128,-1,57
 87 160 87 160 72 186 c 0,58,59
 52 220 52 220 52 252 c 0,60,61
 52 294 52 294 85 348 c 2,62,-1
 101 373 l 1,63,-1
 88 399 l 2,64,65
 75 426 75 426 75 466 c 0,66,67
 75 556 75 556 138 588 c 0,33,34
EndSplineSet
Validated: 1
EndChar

StartChar: nine
Encoding: 57 57 25
Width: 396
GlyphClass: 1
Flags: W
LayerCount: 2
Fore
SplineSet
199 524 m 0,0,1
 182 531 182 531 170 531 c 0,2,3
 155 531 155 531 146 515 c 0,4,5
 135 498 135 498 135 462 c 0,6,7
 135 439 135 439 141 427 c 0,8,9
 158 394 158 394 182 394 c 0,10,11
 193 394 193 394 207 402 c 128,-1,12
 221 410 221 410 235 434 c 128,-1,13
 249 458 249 458 249 474 c 0,14,15
 249 488 249 488 235 501.5 c 128,-1,16
 221 515 221 515 199 524 c 0,0,1
64 529 m 0,17,18
 89 613 89 613 165 613 c 0,19,20
 200 613 200 613 241 594 c 0,21,22
 279 578 279 578 284 578 c 0,23,24
 293 578 293 578 305 569.5 c 128,-1,25
 317 561 317 561 321 551 c 0,26,27
 329 528 329 528 336.5 460 c 128,-1,28
 344 392 344 392 344 336 c 2,29,-1
 344 256 l 1,30,-1
 327 222 l 2,31,32
 311 189 311 189 288 169 c 0,33,34
 230 120 230 120 164 120 c 0,35,36
 107 120 107 120 76 157 c 0,37,38
 63 171 63 171 63 190 c 0,39,40
 63 206 63 206 72.5 217 c 128,-1,41
 82 228 82 228 99 228 c 0,42,43
 114 228 114 228 137 212 c 0,44,45
 157 198 157 198 165 198 c 0,46,47
 172 198 172 198 184 202 c 0,48,49
 206 208 206 208 229.5 228 c 128,-1,50
 253 248 253 248 258 265 c 0,51,52
 266 289 266 289 266 324 c 0,53,54
 266 336 266 336 264 336 c 0,55,56
 260 336 260 336 232 323 c 0,57,58
 205 310 205 310 177 310 c 0,59,60
 121 310 121 310 84 364 c 0,61,62
 54 409 54 409 54 463 c 0,63,64
 54 496 54 496 64 529 c 0,17,18
EndSplineSet
Validated: 1
EndChar

StartChar: colon
Encoding: 58 58 26
Width: 197
GlyphClass: 1
Flags: W
LayerCount: 2
Fore
SplineSet
78 209 m 0,0,1
 91 217 91 217 107 217 c 0,2,3
 124 217 124 217 135 206 c 128,-1,4
 146 195 146 195 146 177 c 128,-1,5
 146 159 146 159 131 144.5 c 128,-1,6
 116 130 116 130 98 130 c 0,7,8
 78 130 78 130 65.5 142 c 128,-1,9
 53 154 53 154 53 170 c 0,10,11
 53 196 53 196 78 209 c 0,0,1
100 487 m 0,12,13
 116 489 116 489 119 490 c 2,14,-1
 120 490 l 2,15,16
 127 490 127 490 136.5 476.5 c 128,-1,17
 146 463 146 463 146 453 c 0,18,19
 146 431 146 431 131.5 417.5 c 128,-1,20
 117 404 117 404 99 404 c 0,21,22
 68 404 68 404 57 435 c 0,23,24
 55 441 55 441 55 445 c 0,25,26
 55 460 55 460 68 472 c 128,-1,27
 81 484 81 484 100 487 c 0,12,13
EndSplineSet
Validated: 1
EndChar

StartChar: question
Encoding: 63 63 27
Width: 371
GlyphClass: 1
Flags: W
LayerCount: 2
Fore
SplineSet
189 222 m 0,0,1
 199 236 199 236 218 236 c 0,2,3
 233 236 233 236 244.5 226 c 128,-1,4
 256 216 256 216 256 199 c 0,5,6
 256 186 256 186 243 172 c 128,-1,7
 230 158 230 158 218 158 c 0,8,9
 208 158 208 158 193 173 c 128,-1,10
 178 188 178 188 178 198 c 0,11,12
 178 207 178 207 189 222 c 0,0,1
141 622 m 0,13,14
 153 627 153 627 173 627 c 0,15,16
 237 627 237 627 284 583 c 0,17,18
 304 564 304 564 311 545.5 c 128,-1,19
 318 527 318 527 318 496 c 0,20,21
 318 441 318 441 274 381 c 0,22,23
 240 333 240 333 240 305 c 0,24,25
 240 266 240 266 203 266 c 0,26,27
 181 266 181 266 169 280 c 128,-1,28
 157 294 157 294 157 318 c 0,29,30
 157 358 157 358 203 424 c 0,31,32
 238 476 238 476 238 498 c 0,33,34
 238 518 238 518 212 533 c 0,35,36
 191 545 191 545 178 545 c 0,37,38
 162 545 162 545 140 526 c 0,39,40
 116 506 116 506 105 502 c 0,41,42
 102 501 102 501 97 501 c 0,43,44
 86 501 86 501 75 508 c 128,-1,45
 64 515 64 515 59 525 c 0,46,47
 56 532 56 532 56 539 c 0,48,49
 56 562 56 562 79.5 585 c 128,-1,50
 103 608 103 608 141 622 c 0,13,14
EndSplineSet
Validated: 1
EndChar

StartChar: A
Encoding: 65 65 28
Width: 394
GlyphClass: 1
Flags: W
LayerCount: 2
Fore
SplineSet
179 461 m 0,0,1
 179 460 179 460 163.5 374.5 c 128,-1,2
 148 289 148 289 148 284 c 0,3,4
 148 282 148 282 194 282 c 0,5,6
 241 282 241 282 244 290 c 0,7,8
 245 291 245 291 245 296 c 0,9,10
 245 335 245 335 207 416 c 0,11,12
 184 464 184 464 180 464 c 0,13,14
 179 464 179 464 179 461 c 0,0,1
136 573 m 0,15,16
 145 583 145 583 159 583 c 0,17,18
 181 583 181 583 208 559 c 0,19,20
 260 513 260 513 300.5 404.5 c 128,-1,21
 341 296 341 296 342 197 c 2,22,-1
 342 175 l 2,23,24
 342 155 342 155 340 148 c 128,-1,25
 338 141 338 141 330 136 c 0,26,27
 318 127 318 127 305 127 c 0,28,29
 287 127 287 127 275 140 c 0,30,31
 262 154 262 154 262 180 c 2,32,-1
 262 206 l 1,33,-1
 235 202 l 2,34,35
 213 199 213 199 170 199 c 2,36,-1
 132 199 l 1,37,-1
 132 169 l 2,38,39
 132 139 132 139 121 128 c 0,40,41
 109 116 109 116 94 116 c 0,42,43
 78 116 78 116 64 130 c 0,44,45
 56 139 56 139 54 147.5 c 128,-1,46
 52 156 52 156 52 185 c 0,47,48
 52 223 52 223 72 331 c 0,49,50
 113 547 113 547 136 573 c 0,15,16
EndSplineSet
Validated: 1
EndChar

StartChar: B
Encoding: 66 66 29
Width: 434
GlyphClass: 1
Flags: W
LayerCount: 2
Fore
SplineSet
248 359 m 0,0,1
 233 364 233 364 202 364 c 0,2,3
 158 364 158 364 158 348 c 0,4,5
 158 345 158 345 159 335 c 128,-1,6
 160 325 160 325 162 308.5 c 128,-1,7
 164 292 164 292 165 279 c 0,8,9
 171 218 171 218 173.5 203.5 c 128,-1,10
 176 189 176 189 184 189 c 0,11,12
 185 189 185 189 195 191 c 0,13,14
 217 195 217 195 243.5 209.5 c 128,-1,15
 270 224 270 224 283 238 c 0,16,17
 304 262 304 262 304 296 c 0,18,19
 304 301 304 301 302 313 c 0,20,21
 295 343 295 343 248 359 c 0,0,1
191 520 m 0,22,23
 181 525 181 525 165 525 c 0,24,25
 150 525 150 525 145 521 c 0,26,27
 140 518 140 518 140 504 c 0,28,29
 140 499 140 499 142 479 c 0,30,31
 146 442 146 442 150 442 c 0,32,33
 157 442 157 442 171.5 451 c 128,-1,34
 186 460 186 460 195 470 c 0,35,36
 204 479 204 479 204 489 c 0,37,38
 204 495 204 495 203 499 c 0,39,40
 199 515 199 515 191 520 c 0,22,23
134 603 m 0,41,42
 148 606 148 606 163 606 c 0,43,44
 227 606 227 606 259 567 c 0,45,46
 284 538 284 538 284 493 c 0,47,48
 284 490 284 490 283.5 484 c 128,-1,49
 283 478 283 478 283 475 c 2,50,-1
 280 437 l 1,51,-1
 301 426 l 2,52,53
 346 404 346 404 364 374.5 c 128,-1,54
 382 345 382 345 382 295 c 0,55,56
 382 253 382 253 373 227 c 128,-1,57
 364 201 364 201 341 178 c 0,58,59
 310 147 310 147 258.5 127 c 128,-1,60
 207 107 207 107 164 107 c 0,61,62
 124 107 124 107 108 124 c 0,63,64
 97 136 97 136 92 187 c 0,65,66
 88 247 88 247 60 470 c 0,67,68
 53 527 53 527 53 545 c 0,69,70
 53 559 53 559 58 565 c 0,71,72
 64 574 64 574 86.5 585.5 c 128,-1,73
 109 597 109 597 134 603 c 0,41,42
EndSplineSet
Validated: 1
EndChar

StartChar: C
Encoding: 67 67 30
Width: 472
GlyphClass: 1
Flags: W
LayerCount: 2
Fore
SplineSet
189 589 m 0,0,1
 208 597 208 597 229 597 c 0,2,3
 231 597 231 597 235 596.5 c 128,-1,4
 239 596 239 596 242 596 c 0,5,6
 268 595 268 595 287.5 585 c 128,-1,7
 307 575 307 575 335 549 c 0,8,9
 357 529 357 529 357 511 c 0,10,11
 357 473 357 473 324 473 c 0,12,13
 302 473 302 473 274 494 c 0,14,15
 246 514 246 514 231 514 c 0,16,17
 217 514 217 514 195 498 c 0,18,19
 167 477 167 477 149.5 431 c 128,-1,20
 132 385 132 385 132 337 c 0,21,22
 132 298 132 298 143 272 c 0,23,24
 150 255 150 255 167 236.5 c 128,-1,25
 184 218 184 218 200 211 c 0,26,27
 217 204 217 204 242 204 c 0,28,29
 279 204 279 204 301 217 c 0,30,31
 365 253 365 253 381 253 c 0,32,33
 386 253 386 253 392 250 c 0,34,35
 407 243 407 243 414 230 c 0,36,37
 419 222 419 222 419 214 c 0,38,39
 419 193 419 193 371 162 c 0,40,41
 309 122 309 122 247 122 c 0,42,43
 244 122 244 122 237.5 122.5 c 128,-1,44
 231 123 231 123 228 123 c 0,45,46
 119 132 119 132 71 234 c 0,47,48
 54 270 54 270 52 324 c 0,49,50
 52 328 52 328 51.5 335 c 128,-1,51
 51 342 51 342 51 345 c 0,52,53
 51 415 51 415 83 487 c 0,54,55
 100 525 100 525 124.5 548.5 c 128,-1,56
 149 572 149 572 189 589 c 0,0,1
EndSplineSet
Validated: 1
EndChar

StartChar: D
Encoding: 68 68 31
Width: 457
GlyphClass: 1
Flags: W
LayerCount: 2
Fore
SplineSet
242 528 m 0,0,1
 208 545 208 545 172 550 c 2,2,-1
 140 553 l 1,3,-1
 143 538 l 2,4,5
 153 489 153 489 162.5 395 c 128,-1,6
 172 301 172 301 172 254 c 2,7,-1
 172 219 l 1,8,-1
 189 222 l 2,9,10
 242 234 242 234 270.5 257 c 128,-1,11
 299 280 299 280 312 321 c 0,12,13
 323 357 323 357 323 399 c 0,14,15
 323 428 323 428 317 445 c 0,16,17
 294 502 294 502 242 528 c 0,0,1
89 625 m 0,18,19
 108 633 108 633 142 633 c 0,20,21
 229 633 229 633 296 594 c 0,22,23
 348 565 348 565 377 511 c 128,-1,24
 406 457 406 457 406 392 c 0,25,26
 406 355 406 355 395 313 c 0,27,28
 376 244 376 244 344 209.5 c 128,-1,29
 312 175 312 175 249 155 c 0,30,31
 185 134 185 134 138 134 c 0,32,33
 97 134 97 134 91 151 c 0,34,35
 88 159 88 159 86 269 c 0,36,37
 83 408 83 408 59 540 c 0,38,39
 54 570 54 570 54 582 c 0,40,41
 54 600 54 600 61.5 608.5 c 128,-1,42
 69 617 69 617 89 625 c 0,18,19
EndSplineSet
Validated: 1
EndChar

StartChar: E
Encoding: 69 69 32
Width: 379
GlyphClass: 1
Flags: W
LayerCount: 2
Fore
SplineSet
198 603 m 0,0,1
 232 607 232 607 243 607 c 0,2,3
 298 607 298 607 298 570 c 2,4,-1
 298 565 l 2,5,6
 296 540 296 540 278.5 532.5 c 128,-1,7
 261 525 261 525 198 522 c 2,8,-1
 126 519 l 1,9,-1
 129 433 l 2,10,11
 133 348 133 348 134 347 c 2,12,-1
 136 347 l 2,13,14
 150 347 150 347 240 357 c 0,15,16
 260 359 260 359 262 359 c 0,17,18
 274 359 274 359 283 350 c 0,19,20
 294 339 294 339 294 323 c 0,21,22
 294 304 294 304 282 294 c 0,23,24
 259 274 259 274 179 268 c 2,25,-1
 138 265 l 1,26,-1
 138 200 l 1,27,-1
 166 197 l 2,28,29
 174 196 174 196 200 196 c 0,30,31
 229 196 229 196 243 197 c 0,32,33
 256 198 256 198 275 198 c 0,34,35
 295 198 295 198 304 193 c 128,-1,36
 313 188 313 188 319 174 c 0,37,38
 322 166 322 166 322 159 c 0,39,40
 322 133 322 133 291 122 c 0,41,42
 273 116 273 116 216 116 c 0,43,44
 115 116 115 116 90 127 c 2,45,-1
 88 128 l 2,46,47
 69 137 69 137 64 150 c 0,48,49
 55 171 55 171 53 332 c 0,50,51
 52 337 52 337 52 347 c 2,52,-1
 52 364 l 2,53,54
 50 504 50 504 50 511 c 0,55,56
 50 570 50 570 58 578 c 0,57,58
 79 602 79 602 118 602 c 0,59,60
 120 602 120 602 124 601.5 c 128,-1,61
 128 601 128 601 131 601 c 0,62,63
 137 600 137 600 153 600 c 0,64,65
 178 600 178 600 198 603 c 0,0,1
EndSplineSet
Validated: 1
EndChar

StartChar: F
Encoding: 70 70 33
Width: 410
GlyphClass: 1
Flags: W
LayerCount: 2
Fore
SplineSet
247 623 m 0,0,1
 284 633 284 633 295 633 c 0,2,3
 309 633 309 633 322 623 c 0,4,5
 337 611 337 611 337 591 c 0,6,7
 337 574 337 574 326 565 c 0,8,9
 317 557 317 557 266 544 c 128,-1,10
 215 531 215 531 176 528 c 2,11,-1
 133 524 l 1,12,-1
 133 507 l 2,13,14
 133 493 133 493 143.5 415 c 128,-1,15
 154 337 154 337 156 335 c 2,16,-1
 157 335 l 2,17,18
 165 335 165 335 210 344 c 0,19,20
 259 354 259 354 299 354 c 0,21,22
 336 354 336 354 346 344 c 0,23,24
 357 333 357 333 357 317 c 0,25,26
 357 300 357 300 345 289 c 0,27,28
 332 278 332 278 301 275 c 0,29,30
 276 274 276 274 219 263 c 0,31,32
 188 257 188 257 180 254 c 128,-1,33
 172 251 172 251 172 246 c 0,34,35
 172 242 172 242 174.5 223 c 128,-1,36
 177 204 177 204 178 191 c 0,37,38
 179 179 179 179 179 163 c 0,39,40
 179 146 179 146 170 137 c 0,41,42
 158 125 158 125 144 125 c 0,43,44
 128 125 128 125 115 139 c 128,-1,45
 102 153 102 153 102 175 c 0,46,47
 102 195 102 195 93.5 242.5 c 128,-1,48
 85 290 85 290 81 295 c 0,49,50
 75 302 75 302 64.5 390 c 128,-1,51
 54 478 54 478 53 519 c 0,52,53
 53 570 53 570 64 586 c 0,54,55
 72 597 72 597 83 600 c 128,-1,56
 94 603 94 603 144 607 c 0,57,58
 223 615 223 615 247 623 c 0,0,1
EndSplineSet
Validated: 1
EndChar

StartChar: G
Encoding: 71 71 34
Width: 464
GlyphClass: 1
Flags: W
LayerCount: 2
Fore
SplineSet
206 595 m 0,0,1
 223 602 223 602 257 602 c 0,2,3
 314 602 314 602 353 585 c 0,4,5
 387 570 387 570 398.5 559 c 128,-1,6
 410 548 410 548 410 531 c 128,-1,7
 410 514 410 514 400 503.5 c 128,-1,8
 390 493 390 493 374 493 c 0,9,10
 359 493 359 493 318 509 c 128,-1,11
 277 525 277 525 262 525 c 0,12,13
 250 525 250 525 230 516 c 0,14,15
 161 485 161 485 137 383 c 0,16,17
 132 363 132 363 132 348 c 0,18,19
 132 320 132 320 150 279 c 0,20,21
 163 251 163 251 200 230 c 128,-1,22
 237 209 237 209 274 209 c 0,23,24
 295 209 295 209 302.5 213.5 c 128,-1,25
 310 218 310 218 310 231 c 2,26,-1
 310 238 l 1,27,-1
 308 259 l 1,28,-1
 282 257 l 2,29,30
 279 257 279 257 275 256.5 c 128,-1,31
 271 256 271 256 269 256 c 0,32,33
 253 256 253 256 241 268 c 128,-1,34
 229 280 229 280 229 297 c 0,35,36
 229 329 229 329 262 337 c 0,37,38
 272 340 272 340 288 340 c 0,39,40
 340 340 340 340 361 325 c 0,41,42
 379 311 379 311 384 294.5 c 128,-1,43
 389 278 389 278 389 230 c 0,44,45
 389 168 389 168 375 152 c 128,-1,46
 361 136 361 136 300 129 c 0,47,48
 293 128 293 128 278 128 c 0,49,50
 222 128 222 128 167.5 155 c 128,-1,51
 113 182 113 182 86 224 c 0,52,53
 72 245 72 245 62 282.5 c 128,-1,54
 52 320 52 320 52 349 c 0,55,56
 52 430 52 430 95.5 500 c 128,-1,57
 139 570 139 570 206 595 c 0,0,1
EndSplineSet
Validated: 1
EndChar

StartChar: H
Encoding: 72 72 35
Width: 493
GlyphClass: 1
Flags: W
LayerCount: 2
Fore
SplineSet
70 590 m 0,0,1
 81 604 81 604 97 604 c 0,2,3
 114 604 114 604 126 590 c 0,4,5
 134 581 134 581 136 562 c 128,-1,6
 138 543 138 543 139 454 c 2,7,-1
 139 330 l 1,8,-1
 191 327 l 2,9,10
 194 327 194 327 201.5 326.5 c 128,-1,11
 209 326 209 326 214 326 c 0,12,13
 256 326 256 326 307.5 331 c 128,-1,14
 359 336 359 336 363 340 c 0,15,16
 364 343 364 343 364 348 c 0,17,18
 364 368 364 368 357.5 446.5 c 128,-1,19
 351 525 351 525 351 535 c 0,20,21
 351 549 351 549 364 563 c 128,-1,22
 377 577 377 577 391 577 c 0,23,24
 426 577 426 577 433 530 c 0,25,26
 437 507 437 507 441 322 c 2,27,-1
 443 142 l 1,28,-1
 431 130 l 2,29,30
 418 117 418 117 403 117 c 0,31,32
 374 117 374 117 365 151 c 0,33,34
 360 168 360 168 360 214 c 0,35,36
 360 255 360 255 353 255 c 0,37,38
 350 255 350 255 348 254 c 0,39,40
 336 251 336 251 237 247 c 2,41,-1
 137 244 l 1,42,-1
 134 210 l 2,43,44
 130 168 130 168 120.5 152.5 c 128,-1,45
 111 137 111 137 89 137 c 0,46,47
 78 137 78 137 66 147 c 128,-1,48
 54 157 54 157 51 170 c 0,49,50
 50 172 50 172 50 184 c 0,51,52
 50 206 50 206 53 232 c 0,53,54
 59 286 59 286 59 428 c 0,55,56
 59 532 59 532 60.5 556 c 128,-1,57
 62 580 62 580 70 590 c 0,0,1
EndSplineSet
Validated: 1
EndChar

StartChar: I
Encoding: 73 73 36
Width: 210
GlyphClass: 1
Flags: W
LayerCount: 2
Fore
SplineSet
64 582 m 0,0,1
 79 593 79 593 85 593 c 0,2,3
 95 593 95 593 107 586.5 c 128,-1,4
 119 580 119 580 123 573 c 0,5,6
 132 556 132 556 146 408 c 128,-1,7
 160 260 160 260 160 191 c 0,8,9
 160 171 160 171 158 165 c 0,10,11
 146 142 146 142 122 142 c 128,-1,12
 98 142 98 142 88 162 c 0,13,14
 82 171 82 171 77 264 c 0,15,16
 73 329 73 329 61 441 c 0,17,18
 51 520 51 520 51 547 c 0,19,20
 51 572 51 572 64 582 c 0,0,1
EndSplineSet
Validated: 1
EndChar

StartChar: J
Encoding: 74 74 37
Width: 390
GlyphClass: 1
Flags: W
LayerCount: 2
Fore
SplineSet
68 555 m 0,0,1
 76 561 76 561 96.5 562.5 c 128,-1,2
 117 564 117 564 194 564 c 0,3,4
 280 564 280 564 296 562.5 c 128,-1,5
 312 561 312 561 322 552 c 0,6,7
 336 538 336 538 336 524 c 128,-1,8
 336 510 336 510 323 497 c 0,9,10
 311 484 311 484 281 484 c 2,11,-1
 251 484 l 1,12,-1
 256 428 l 2,13,14
 260 380 260 380 260 315 c 0,15,16
 260 147 260 147 237 83 c 0,17,18
 229 63 229 63 209.5 40 c 128,-1,19
 190 17 190 17 172 8 c 0,20,21
 160 2 160 2 148 2 c 0,22,23
 129 2 129 2 118 16 c 0,24,25
 109 27 109 27 109 38 c 0,26,27
 109 58 109 58 138 87 c 0,28,29
 159 109 159 109 164 126 c 128,-1,30
 169 143 169 143 177 222 c 0,31,32
 181 261 181 261 181 302 c 0,33,34
 181 330 181 330 178 380.5 c 128,-1,35
 175 431 175 431 175 441 c 2,36,-1
 175 484 l 1,37,-1
 137 484 l 2,38,39
 91 484 91 484 73.5 494 c 128,-1,40
 56 504 56 504 56 530 c 0,41,42
 56 546 56 546 68 555 c 0,0,1
EndSplineSet
Validated: 1
EndChar

StartChar: K
Encoding: 75 75 38
Width: 460
GlyphClass: 1
Flags: W
LayerCount: 2
Fore
SplineSet
70 626 m 0,0,1
 79 632 79 632 88 632 c 0,2,3
 105 632 105 632 120 616 c 0,4,5
 131 603 131 603 132 576 c 0,6,7
 135 432 135 432 143 424 c 1,8,-1
 144 424 l 2,9,10
 150 424 150 424 171 443 c 0,11,12
 199 468 199 468 251.5 510 c 128,-1,13
 304 552 304 552 325 566 c 0,14,15
 350 582 350 582 366 582 c 0,16,17
 381 582 381 582 393.5 571 c 128,-1,18
 406 560 406 560 406 545 c 0,19,20
 406 532 406 532 393 519 c 128,-1,21
 380 506 380 506 307 448 c 0,22,23
 244 399 244 399 220 377 c 2,24,-1
 197 357 l 1,25,-1
 238 328 l 2,26,27
 273 303 273 303 318 278 c 0,28,29
 357 255 357 255 371 240.5 c 128,-1,30
 385 226 385 226 385 209 c 128,-1,31
 385 192 385 192 375.5 181.5 c 128,-1,32
 366 171 366 171 351 171 c 0,33,34
 340 171 340 171 328 177 c 0,35,36
 260 212 260 212 189 263 c 0,37,38
 156 287 156 287 151 287 c 0,39,40
 147 287 147 287 147 228 c 0,41,42
 147 183 147 183 141.5 165 c 128,-1,43
 136 147 136 147 123 147 c 0,44,45
 116 147 116 147 116 141 c 0,46,47
 116 138 116 138 110 138 c 0,48,49
 91 138 91 138 78 151 c 0,50,51
 70 159 70 159 64 295 c 0,52,53
 59 425 59 425 53 513 c 0,54,55
 50 556 50 556 50 577 c 0,56,57
 50 599 50 599 54 608 c 128,-1,58
 58 617 58 617 70 626 c 0,0,1
EndSplineSet
Validated: 1
EndChar

StartChar: L
Encoding: 76 76 39
Width: 352
GlyphClass: 1
Flags: W
LayerCount: 2
Fore
SplineSet
68 554 m 0,0,1
 80 566 80 566 93 566 c 0,2,3
 105 566 105 566 118 556 c 2,4,-1
 131 546 l 1,5,-1
 131 452 l 2,6,7
 131 353 131 353 138 283 c 2,8,-1
 144 210 l 1,9,-1
 160 207 l 2,10,11
 172 204 172 204 216 204 c 0,12,13
 258 204 258 204 272 196 c 0,14,15
 295 185 295 185 295 159 c 0,16,17
 295 150 295 150 293 146 c 0,18,19
 288 132 288 132 277.5 127 c 128,-1,20
 267 122 267 122 240 122 c 0,21,22
 221 122 221 122 209 123 c 0,23,24
 103 129 103 129 85 136 c 0,25,26
 65 145 65 145 62 177 c 0,27,28
 61 183 61 183 59 218 c 0,29,30
 50 377 50 377 50 471 c 0,31,32
 50 503 50 503 52 517 c 0,33,34
 57 543 57 543 68 554 c 0,0,1
EndSplineSet
Validated: 1
EndChar

StartChar: M
Encoding: 77 77 40
Width: 558
GlyphClass: 1
Flags: W
LayerCount: 2
Fore
SplineSet
398 561 m 0,0,1
 410 573 410 573 431 573 c 0,2,3
 450 573 450 573 459 563 c 0,4,5
 467 554 467 554 477 500 c 128,-1,6
 487 446 487 446 493 377 c 0,7,8
 507 204 507 204 507 172 c 0,9,10
 507 161 507 161 506 159 c 0,11,12
 503 152 503 152 491 145 c 128,-1,13
 479 138 479 138 468 138 c 0,14,15
 464 138 464 138 462 139 c 0,16,17
 439 145 439 145 432.5 164 c 128,-1,18
 426 183 426 183 421 265 c 0,19,20
 416 344 416 344 411 380 c 2,21,-1
 408 406 l 1,22,-1
 389 361 l 2,23,24
 370 318 370 318 355 265 c 0,25,26
 342 224 342 224 332.5 211 c 128,-1,27
 323 198 323 198 303 194 c 0,28,29
 300 193 300 193 295 193 c 0,30,31
 285 193 285 193 260 219 c 0,32,33
 231 250 231 250 193 312 c 0,34,35
 152 380 152 380 148 380 c 0,36,37
 145 380 145 380 145 331 c 0,38,39
 145 305 145 305 146 290 c 0,40,41
 148 228 148 228 148 223 c 0,42,43
 148 194 148 194 141 184 c 0,44,45
 128 163 128 163 105 163 c 128,-1,46
 82 163 82 163 71 185 c 0,47,48
 65 199 65 199 65 263 c 0,49,50
 65 330 65 330 58 390 c 0,51,52
 50 458 50 458 50 484 c 0,53,54
 50 505 50 505 52.5 512.5 c 128,-1,55
 55 520 55 520 66 530 c 0,56,57
 86 550 86 550 103 550 c 0,58,59
 114 550 114 550 125 543 c 0,60,61
 136 535 136 535 184.5 468.5 c 128,-1,62
 233 402 233 402 263 353 c 0,63,64
 283 322 283 322 285 322 c 2,65,-1
 288 330 l 2,66,67
 292 337 292 337 298.5 353.5 c 128,-1,68
 305 370 305 370 310 382 c 0,69,70
 334 442 334 442 360.5 496 c 128,-1,71
 387 550 387 550 398 561 c 0,0,1
EndSplineSet
Validated: 1
EndChar

StartChar: N
Encoding: 78 78 41
Width: 470
GlyphClass: 1
Flags: W
LayerCount: 2
Fore
SplineSet
366 599 m 0,0,1
 375 603 375 603 381 603 c 128,-1,2
 387 603 387 603 397 598 c 0,3,4
 410 591 410 591 415 580 c 128,-1,5
 420 569 420 569 420 538 c 0,6,7
 420 502 420 502 409 372 c 0,8,9
 399 258 399 258 386 211 c 0,10,11
 372 156 372 156 336 156 c 0,12,13
 303 156 303 156 277 188.5 c 128,-1,14
 251 221 251 221 197 330 c 0,15,16
 174 374 174 374 160 401.5 c 128,-1,17
 146 429 146 429 145 428 c 128,-1,18
 144 427 144 427 137 298 c 0,19,20
 133 205 133 205 130 186.5 c 128,-1,21
 127 168 127 168 118 160 c 0,22,23
 105 150 105 150 93 150 c 0,24,25
 64 150 64 150 54 192 c 0,26,27
 50 212 50 212 50 313 c 0,28,29
 50 432 50 432 55 482 c 0,30,31
 64 560 64 560 96 576 c 0,32,33
 112 584 112 584 123 584 c 0,34,35
 145 584 145 584 169.5 549 c 128,-1,36
 194 514 194 514 246 413 c 0,37,38
 309 290 309 290 317 290 c 0,39,40
 318 290 318 290 319 293 c 0,41,42
 329 334 329 334 337 511 c 0,43,44
 339 558 339 558 344.5 575.5 c 128,-1,45
 350 593 350 593 366 599 c 0,0,1
EndSplineSet
Validated: 1
EndChar

StartChar: O
Encoding: 79 79 42
Width: 519
GlyphClass: 1
Flags: W
LayerCount: 2
Fore
SplineSet
255 524 m 0,0,1
 234 531 234 531 227 531 c 0,2,3
 222 531 222 531 205 525 c 128,-1,4
 188 519 188 519 168 493 c 128,-1,5
 148 467 148 467 140 439 c 0,6,7
 134 416 134 416 134 385 c 0,8,9
 134 326 134 326 152 296 c 0,10,11
 184 242 184 242 218 226 c 0,12,13
 236 218 236 218 255 218 c 0,14,15
 314 218 314 218 347 259 c 0,16,17
 361 276 361 276 373.5 303.5 c 128,-1,18
 386 331 386 331 389 352 c 0,19,20
 389 353 389 353 389.5 357 c 128,-1,21
 390 361 390 361 390 363 c 0,22,23
 390 417 390 417 362 464 c 0,24,25
 351 483 351 483 329 499.5 c 128,-1,26
 307 516 307 516 293 516 c 0,27,28
 283 516 283 516 255 524 c 0,0,1
159 593 m 0,29,30
 190 609 190 609 229 609 c 0,31,32
 262 609 262 609 289 599 c 0,33,34
 312 591 312 591 331 589 c 0,35,36
 357 588 357 588 398 548 c 0,37,38
 467 482 467 482 467 369 c 2,39,-1
 467 354 l 2,40,41
 465 321 465 321 461.5 306.5 c 128,-1,42
 458 292 458 292 443 262 c 0,43,44
 382 139 382 139 257 139 c 2,45,-1
 254 139 l 2,46,47
 213 139 213 139 184 152 c 0,48,49
 148 168 148 168 113.5 208.5 c 128,-1,50
 79 249 79 249 65 291 c 0,51,52
 52 330 52 330 52 395 c 0,53,54
 52 420 52 420 55 436 c 0,55,56
 65 488 65 488 93.5 531 c 128,-1,57
 122 574 122 574 159 593 c 0,29,30
EndSplineSet
Validated: 1
EndChar

StartChar: P
Encoding: 80 80 43
Width: 423
GlyphClass: 1
Flags: W
LayerCount: 2
Fore
SplineSet
210 508 m 0,0,1
 181 516 181 516 168 516 c 0,2,3
 156 516 156 516 143 513 c 0,4,5
 138 512 138 512 136.5 511 c 128,-1,6
 135 510 135 510 133.5 506.5 c 128,-1,7
 132 503 132 503 132 496 c 0,8,9
 132 482 132 482 133 471 c 0,10,11
 135 444 135 444 140 378 c 0,12,13
 142 339 142 339 144 332 c 128,-1,14
 146 325 146 325 155 323 c 0,15,16
 165 321 165 321 174 321 c 0,17,18
 200 321 200 321 230.5 331 c 128,-1,19
 261 341 261 341 275 355 c 0,20,21
 291 371 291 371 291 385 c 0,22,23
 291 395 291 395 290 402 c 0,24,25
 284 488 284 488 210 508 c 0,0,1
124 593 m 0,26,27
 157 598 157 598 170 598 c 2,28,-1
 173 598 l 2,29,30
 188 598 188 598 225 587.5 c 128,-1,31
 262 577 262 577 279 569 c 0,32,33
 319 548 319 548 346 497 c 128,-1,34
 373 446 373 446 373 394 c 0,35,36
 373 360 373 360 359 332 c 0,37,38
 337 289 337 289 289.5 265.5 c 128,-1,39
 242 242 242 242 177 241 c 2,40,-1
 142 241 l 1,41,-1
 142 198 l 2,42,43
 142 156 142 156 130 142 c 0,44,45
 117 128 117 128 100 128 c 0,46,47
 84 128 84 128 71 142 c 0,48,49
 62 152 62 152 60.5 169 c 128,-1,50
 59 186 59 186 59 271 c 0,51,52
 59 377 59 377 53 469 c 0,53,54
 50 517 50 517 50 534 c 0,55,56
 50 556 50 556 56 566 c 0,57,58
 64 578 64 578 77 583.5 c 128,-1,59
 90 589 90 589 124 593 c 0,26,27
EndSplineSet
Validated: 1
EndChar

StartChar: Q
Encoding: 81 81 44
Width: 574
GlyphClass: 1
Flags: W
LayerCount: 2
Fore
SplineSet
348 517 m 0,0,1
 320 540 320 540 288 540 c 0,2,3
 265 540 265 540 236 530 c 0,4,5
 181 509 181 509 158 464 c 0,6,7
 131 406 131 406 131 346 c 0,8,9
 131 259 131 259 181 223 c 0,10,11
 223 192 223 192 279 192 c 2,12,-1
 303 192 l 1,13,-1
 286 239 l 2,14,15
 272 275 272 275 272 292 c 0,16,17
 272 306 272 306 282 317 c 0,18,19
 289 325 289 325 306 325 c 128,-1,20
 323 325 323 325 333 318 c 0,21,22
 347 307 347 307 361 267 c 0,23,24
 376 226 376 226 383 226 c 2,25,-1
 384 226 l 2,26,27
 392 229 392 229 408.5 251 c 128,-1,28
 425 273 425 273 433 291 c 0,29,30
 443 312 443 312 443 354 c 0,31,32
 443 399 443 399 433 426 c 0,33,34
 423 457 423 457 407 479 c 128,-1,35
 391 501 391 501 377 504 c 0,36,37
 358 508 358 508 348 517 c 0,0,1
219 610 m 0,38,39
 262 625 262 625 284 625 c 0,40,41
 340 625 340 625 392 587 c 0,42,43
 420 568 420 568 432 565 c 0,44,45
 450 561 450 561 474 524 c 0,46,47
 503 479 503 479 513 444.5 c 128,-1,48
 523 410 523 410 523 354 c 0,49,50
 523 308 523 308 520.5 295 c 128,-1,51
 518 282 518 282 504 252 c 0,52,53
 486 213 486 213 447 175 c 2,54,-1
 411 139 l 1,55,-1
 417 115 l 2,56,57
 422 97 422 97 427 70 c 0,58,59
 427 68 427 68 427.5 65 c 128,-1,60
 428 62 428 62 428 61 c 0,61,62
 428 49 428 49 414 38 c 0,63,64
 403 28 403 28 391 28 c 0,65,66
 390 28 390 28 388 28.5 c 128,-1,67
 386 29 386 29 384 29 c 0,68,69
 356 35 356 35 342 81 c 2,70,-1
 334 109 l 1,71,-1
 300 109 l 2,72,73
 131 109 131 109 72 234 c 0,74,75
 60 260 60 260 57.5 275 c 128,-1,76
 55 290 55 290 53 334 c 0,77,78
 52 348 52 348 52 370 c 0,79,80
 52 406 52 406 61 436 c 0,81,82
 81 507 81 507 117 547 c 0,83,84
 138 571 138 571 158.5 584 c 128,-1,85
 179 597 179 597 219 610 c 0,38,39
EndSplineSet
Validated: 1
EndChar

StartChar: R
Encoding: 82 82 45
Width: 445
GlyphClass: 1
Flags: W
LayerCount: 2
Fore
SplineSet
242 516 m 0,0,1
 218 527 218 527 189 527 c 0,2,3
 145 527 145 527 140 510 c 0,4,5
 138 502 138 502 133.5 424.5 c 128,-1,6
 129 347 129 347 129 316 c 0,7,8
 129 313 129 313 129.5 310.5 c 128,-1,9
 130 308 130 308 130 306 c 2,10,-1
 130 305 l 2,11,12
 131 303 131 303 174 303 c 0,13,14
 202 303 202 303 215 306 c 128,-1,15
 228 309 228 309 251 320 c 0,16,17
 288 339 288 339 300 353 c 0,18,19
 314 368 314 368 314 390 c 2,20,-1
 314 402 l 2,21,22
 313 480 313 480 242 516 c 0,0,1
137 601 m 0,23,24
 165 608 165 608 194 608 c 0,25,26
 269 608 269 608 333 549 c 0,27,28
 367 518 367 518 379.5 489 c 128,-1,29
 392 460 392 460 394 410 c 0,30,31
 394 405 394 405 394.5 396 c 128,-1,32
 395 387 395 387 395 384 c 0,33,34
 395 357 395 357 384 332 c 0,35,36
 366 290 366 290 309 258 c 0,37,38
 281 241 281 241 281 237 c 0,39,40
 281 230 281 230 297 207 c 0,41,42
 316 178 316 178 316 162 c 0,43,44
 316 150 316 150 307 139 c 0,45,46
 296 125 296 125 277 125 c 0,47,48
 260 125 260 125 250 134.5 c 128,-1,49
 240 144 240 144 215 183 c 0,50,51
 201 205 201 205 194 211.5 c 128,-1,52
 187 218 187 218 178 218 c 0,53,54
 162 218 162 218 148 221 c 2,55,-1
 131 224 l 1,56,-1
 135 180 l 1,57,-1
 138 136 l 1,58,-1
 122 120 l 2,59,60
 107 104 107 104 93 104 c 0,61,62
 82 104 82 104 69 114 c 128,-1,63
 56 124 56 124 53 172 c 0,64,65
 49 240 49 240 49 320 c 0,66,67
 49 422 49 422 54 475 c 0,68,69
 60 539 60 539 77.5 565.5 c 128,-1,70
 95 592 95 592 137 601 c 0,23,24
EndSplineSet
Validated: 1
EndChar

StartChar: S
Encoding: 83 83 46
Width: 404
GlyphClass: 1
Flags: W
LayerCount: 2
Fore
SplineSet
161 599 m 0,0,1
 182 608 182 608 209 608 c 0,2,3
 235 608 235 608 256 599 c 0,4,5
 275 591 275 591 314 554 c 0,6,7
 337 531 337 531 343.5 521.5 c 128,-1,8
 350 512 350 512 350 500 c 0,9,10
 350 482 350 482 336 471 c 128,-1,11
 322 460 322 460 311 460 c 0,12,13
 293 460 293 460 251 499 c 0,14,15
 222 527 222 527 206 527 c 0,16,17
 178 527 178 527 164 480 c 0,18,19
 161 470 161 470 161 460 c 0,20,21
 161 424 161 424 229 359 c 0,22,23
 272 317 272 317 287 292.5 c 128,-1,24
 302 268 302 268 303 239 c 0,25,26
 303 178 303 178 234 141 c 0,27,28
 206 126 206 126 173 126 c 0,29,30
 126 126 126 126 92 154 c 0,31,32
 62 180 62 180 55 212 c 0,33,34
 54 216 54 216 54 223 c 0,35,36
 54 240 54 240 65 251.5 c 128,-1,37
 76 263 76 263 93 264 c 0,38,39
 104 264 104 264 118.5 252 c 128,-1,40
 133 240 133 240 133 231 c 0,41,42
 133 224 133 224 146.5 215.5 c 128,-1,43
 160 207 160 207 172 207 c 0,44,45
 186 207 186 207 203 218 c 0,46,47
 221 228 221 228 221 240 c 0,48,49
 221 254 221 254 191 281 c 0,50,51
 122 342 122 342 100 383 c 0,52,53
 89 403 89 403 86.5 415.5 c 128,-1,54
 84 428 84 428 84 462 c 0,55,56
 84 514 84 514 95 535 c 0,57,58
 120 581 120 581 161 599 c 0,0,1
EndSplineSet
Validated: 1
EndChar

StartChar: T
Encoding: 84 84 47
Width: 462
GlyphClass: 1
Flags: W
LayerCount: 2
Fore
SplineSet
70 603 m 0,0,1
 81 613 81 613 94 613 c 0,2,3
 104 613 104 613 111 612 c 0,4,5
 191 602 191 602 309 602 c 0,6,7
 332 602 332 602 339 603 c 0,8,9
 349 604 349 604 361 604 c 0,10,11
 378 604 378 604 392 590 c 0,12,13
 407 575 407 575 407 560 c 0,14,15
 407 547 407 547 395 535 c 0,16,17
 386 526 386 526 375.5 524 c 128,-1,18
 365 522 365 522 325 522 c 2,19,-1
 267 522 l 1,20,-1
 270 492 l 2,21,22
 279 425 279 425 279 221 c 0,23,24
 279 161 279 161 277 158 c 0,25,26
 266 135 266 135 242 135 c 0,27,28
 227 135 227 135 216 145 c 0,29,30
 207 152 207 152 205 169.5 c 128,-1,31
 203 187 203 187 201 280 c 0,32,33
 197 412 197 412 194 466 c 2,34,-1
 190 527 l 1,35,-1
 161 527 l 2,36,37
 102 528 102 528 79 538.5 c 128,-1,38
 56 549 56 549 56 577 c 0,39,40
 56 592 56 592 70 603 c 0,0,1
EndSplineSet
Validated: 1
EndChar

StartChar: U
Encoding: 85 85 48
Width: 519
GlyphClass: 1
Flags: W
LayerCount: 2
Fore
SplineSet
64 571 m 2,0,1
 76 582 76 582 91 582 c 0,2,3
 105 582 105 582 116 572 c 0,4,5
 126 563 126 563 128 546.5 c 128,-1,6
 130 530 130 530 134 442 c 0,7,8
 139 322 139 322 153.5 280.5 c 128,-1,9
 168 239 168 239 211 219 c 0,10,11
 234 208 234 208 263 208 c 0,12,13
 326 208 326 208 359 258 c 0,14,15
 387 299 387 299 387 441 c 0,16,17
 387 510 387 510 391.5 529.5 c 128,-1,18
 396 549 396 549 415 557 c 0,19,20
 425 561 425 561 431 561 c 0,21,22
 454 561 454 561 465 537 c 0,23,24
 469 528 469 528 469 474 c 0,25,26
 469 349 469 349 457 291 c 0,27,28
 427 151 427 151 296 130 c 0,29,30
 278 127 278 127 259 127 c 0,31,32
 183 127 183 127 129 175 c 0,33,34
 93 207 93 207 72 269 c 0,35,36
 53 325 53 325 52 462 c 2,37,-1
 50 559 l 1,38,-1
 64 571 l 2,0,1
EndSplineSet
Validated: 1
EndChar

StartChar: V
Encoding: 86 86 49
Width: 489
GlyphClass: 1
Flags: W
LayerCount: 2
Fore
SplineSet
370 571 m 0,0,1
 382 583 382 583 397 583 c 0,2,3
 410 583 410 583 420.5 575 c 128,-1,4
 431 567 431 567 434 553 c 0,5,6
 435 550 435 550 435 544 c 0,7,8
 435 487 435 487 354 307 c 0,9,10
 314 219 314 219 291.5 187.5 c 128,-1,11
 269 156 269 156 245 156 c 0,12,13
 244 156 244 156 241 156.5 c 128,-1,14
 238 157 238 157 237 157 c 0,15,16
 215 161 215 161 200.5 179.5 c 128,-1,17
 186 198 186 198 166 247 c 0,18,19
 160 262 160 262 149 288.5 c 128,-1,20
 138 315 138 315 122.5 351.5 c 128,-1,21
 107 388 107 388 99 407 c 0,22,23
 56 506 56 506 56 530 c 0,24,25
 56 543 56 543 66 553 c 128,-1,26
 76 563 76 563 93 563 c 128,-1,27
 110 563 110 563 121 552 c 0,28,29
 133 538 133 538 187 408 c 0,30,31
 232 300 232 300 245 274 c 1,32,-1
 246 273 l 2,33,34
 250 273 250 273 289 362 c 0,35,36
 336 470 336 470 351 529 c 0,37,38
 358 557 358 557 370 571 c 0,0,1
EndSplineSet
Validated: 1
EndChar

StartChar: W
Encoding: 87 87 50
Width: 645
GlyphClass: 1
Flags: W
LayerCount: 2
Fore
SplineSet
530 607 m 128,-1,1
 540 614 540 614 554 614 c 0,2,3
 578 614 578 614 590 591 c 0,4,5
 591 590 591 590 591 582 c 0,6,7
 591 545 591 545 566 414.5 c 128,-1,8
 541 284 541 284 521 219 c 0,9,10
 500 151 500 151 465 151 c 0,11,12
 434 151 434 151 400 203 c 0,13,14
 373 248 373 248 351 294 c 0,15,16
 326 348 326 348 319 348 c 2,17,-1
 318 348 l 1,18,19
 313 341 313 341 282 268 c 0,20,21
 248 190 248 190 236 181 c 0,22,23
 225 171 225 171 208 171 c 0,24,25
 187 171 187 171 175 186 c 0,26,27
 148 216 148 216 104 384 c 0,28,29
 86 453 86 453 68 503 c 0,30,31
 56 533 56 533 56 550 c 0,32,33
 56 570 56 570 71 580 c 0,34,35
 79 587 79 587 91 587 c 0,36,37
 107 587 107 587 124 570 c 0,38,39
 148 544 148 544 186 389 c 0,40,41
 201 330 201 330 207 322 c 0,42,43
 213 316 213 316 214 317 c 128,-1,44
 215 318 215 318 220 331 c 0,45,46
 230 356 230 356 254 404 c 0,47,48
 275 447 275 447 290.5 463.5 c 128,-1,49
 306 480 306 480 324 480 c 128,-1,50
 342 480 342 480 357 459.5 c 128,-1,51
 372 439 372 439 405 370 c 0,52,53
 447 282 447 282 452 282 c 0,54,55
 460 282 460 282 493 470 c 0,56,57
 508 557 508 557 514 578.5 c 128,-1,0
 520 600 520 600 530 607 c 128,-1,1
EndSplineSet
Validated: 1
EndChar

StartChar: X
Encoding: 88 88 51
Width: 443
GlyphClass: 1
Flags: W
LayerCount: 2
Fore
SplineSet
84 618 m 0,0,1
 96 630 96 630 112 630 c 0,2,3
 129 630 129 630 141 618 c 0,4,5
 154 603 154 603 186 532 c 0,6,7
 218 460 218 460 222 460 c 0,8,9
 227 460 227 460 312 573 c 0,10,11
 322 588 322 588 328.5 592 c 128,-1,12
 335 596 335 596 349 598 c 2,13,-1
 354 598 l 2,14,15
 389 598 389 598 389 562 c 0,16,17
 389 546 389 546 372.5 520.5 c 128,-1,18
 356 495 356 495 304 426 c 0,19,20
 269 382 269 382 269 376 c 0,21,22
 269 375 269 375 328 270 c 0,23,24
 387 170 387 170 387 148 c 0,25,26
 387 132 387 132 366 122 c 0,27,28
 356 116 356 116 349 116 c 0,29,30
 347 116 347 116 335 120 c 0,31,32
 322 125 322 125 306.5 146 c 128,-1,33
 291 167 291 167 259 225 c 0,34,35
 255 231 255 231 251 239 c 128,-1,36
 247 247 247 247 244.5 252 c 128,-1,37
 242 257 242 257 239 263 c 128,-1,38
 236 269 236 269 234 272 c 128,-1,39
 232 275 232 275 229.5 279 c 128,-1,40
 227 283 227 283 225.5 285 c 128,-1,41
 224 287 224 287 222 289 c 128,-1,42
 220 291 220 291 218.5 291.5 c 128,-1,43
 217 292 217 292 215 292 c 128,-1,44
 213 292 213 292 211 291 c 128,-1,45
 209 290 209 290 207 287.5 c 128,-1,46
 205 285 205 285 203 282 c 128,-1,47
 201 279 201 279 197.5 273.5 c 128,-1,48
 194 268 194 268 191.5 264 c 128,-1,49
 189 260 189 260 184.5 252 c 128,-1,50
 180 244 180 244 176 238 c 0,51,52
 142 181 142 181 129 165.5 c 128,-1,53
 116 150 116 150 100 147 c 0,54,55
 97 146 97 146 91 146 c 0,56,57
 82 146 82 146 67 160 c 0,58,59
 53 174 53 174 53 186 c 128,-1,60
 53 198 53 198 70 223 c 0,61,62
 94 260 94 260 130 319 c 128,-1,63
 166 378 166 378 166 381 c 0,64,65
 166 386 166 386 119 482 c 0,66,67
 73 580 73 580 73 592 c 0,68,69
 73 605 73 605 84 618 c 0,0,1
EndSplineSet
Validated: 1
EndChar

StartChar: Y
Encoding: 89 89 52
Width: 430
GlyphClass: 1
Flags: W
LayerCount: 2
Fore
SplineSet
317 584 m 0,0,1
 329 594 329 594 338 594 c 128,-1,2
 347 594 347 594 359 584.5 c 128,-1,3
 371 575 371 575 375 565 c 0,4,5
 376 563 376 563 376 556 c 0,6,7
 376 521 376 521 329 396 c 0,8,9
 304 329 304 329 269 236 c 128,-1,10
 234 143 234 143 224 134 c 128,-1,11
 214 125 214 125 200 125 c 0,12,13
 168 125 168 125 161 156 c 0,14,15
 161 157 161 157 160.5 159 c 128,-1,16
 160 161 160 161 160 162 c 0,17,18
 160 179 160 179 189 258 c 2,19,-1
 221 345 l 1,20,-1
 184 380 l 2,21,22
 105 453 105 453 80.5 481.5 c 128,-1,23
 56 510 56 510 56 530 c 0,24,25
 56 548 56 548 66.5 560 c 128,-1,26
 77 572 77 572 91 572 c 0,27,28
 96 572 96 572 98 571 c 0,29,30
 110 568 110 568 165 513 c 0,31,32
 219 457 219 457 237 444 c 2,33,-1
 255 429 l 1,34,-1
 279 501 l 2,35,36
 303 573 303 573 317 584 c 0,0,1
EndSplineSet
Validated: 1
EndChar

StartChar: Z
Encoding: 90 90 53
Width: 454
GlyphClass: 1
Flags: W
LayerCount: 2
Fore
SplineSet
85 612 m 0,0,1
 98 620 98 620 148 620 c 0,2,3
 154 620 154 620 172.5 619.5 c 128,-1,4
 191 619 191 619 203 619 c 0,5,6
 310 616 310 616 328 608 c 0,7,8
 362 593 362 593 362 565 c 0,9,10
 362 560 362 560 361 557 c 0,11,12
 358 541 358 541 323.5 478 c 128,-1,13
 289 415 289 415 266 382 c 0,14,15
 260 373 260 373 237 340 c 128,-1,16
 214 307 214 307 202 290 c 2,17,-1
 161 230 l 1,18,-1
 191 227 l 2,19,20
 206 225 206 225 297 223 c 0,21,22
 353 222 353 222 365 220.5 c 128,-1,23
 377 219 377 219 386 210 c 0,24,25
 398 198 398 198 398 184 c 0,26,27
 398 172 398 172 388 159 c 2,28,-1
 378 145 l 1,29,-1
 280 145 l 2,30,31
 88 145 88 145 61 180 c 0,32,33
 54 188 54 188 54 202 c 0,34,35
 54 222 54 222 66 239 c 0,36,37
 159 373 159 373 177 398 c 0,38,39
 196 424 196 424 228 476 c 128,-1,40
 260 528 260 528 260 533 c 0,41,42
 260 535 260 535 181 539 c 0,43,44
 111 542 111 542 94 548.5 c 128,-1,45
 77 555 77 555 75 582 c 2,46,-1
 75 590 l 2,47,48
 75 604 75 604 85 612 c 0,0,1
EndSplineSet
Validated: 1
EndChar

StartChar: a
Encoding: 97 97 54
Width: 428
GlyphClass: 1
Flags: W
LayerCount: 2
Fore
SplineSet
225 391 m 0,0,1
 214 398 214 398 201 398 c 0,2,3
 176 398 176 398 155.5 374.5 c 128,-1,4
 135 351 135 351 135 318 c 0,5,6
 135 284 135 284 154.5 261 c 128,-1,7
 174 238 174 238 203 238 c 0,8,9
 228 238 228 238 248.5 270 c 128,-1,10
 269 302 269 302 269 340 c 0,11,12
 269 355 269 355 260.5 365 c 128,-1,13
 252 375 252 375 225 391 c 0,0,1
147 471 m 0,14,15
 170 481 170 481 198 481 c 0,16,17
 229 481 229 481 254 470 c 0,18,19
 275 461 275 461 282 461 c 0,20,21
 287 461 287 461 293 464 c 0,22,23
 307 470 307 470 315 470 c 0,24,25
 327 470 327 470 338 460 c 2,26,-1
 350 449 l 1,27,-1
 353 337 l 2,28,29
 355 255 355 255 356.5 236.5 c 128,-1,30
 358 218 358 218 366 201 c 0,31,32
 376 182 376 182 376 174 c 0,33,34
 376 169 376 169 373 162 c 0,35,36
 363 138 363 138 339 138 c 0,37,38
 308 138 308 138 292 166 c 0,39,40
 284 181 284 181 282 181 c 0,41,42
 278 181 278 181 260 171 c 0,43,44
 232 157 232 157 199 157 c 0,45,46
 180 157 180 157 165 161 c 0,47,48
 139 167 139 167 135 167 c 2,49,-1
 134 167 l 2,50,51
 132 166 132 166 105 189 c 0,52,53
 60 230 60 230 54 305 c 0,54,55
 53 314 53 314 53 327 c 0,56,57
 53 347 53 347 68 384 c 0,58,59
 95 447 95 447 147 471 c 0,14,15
EndSplineSet
Validated: 33
EndChar

StartChar: b
Encoding: 98 98 55
Width: 440
GlyphClass: 1
Flags: W
LayerCount: 2
Fore
SplineSet
272 375 m 0,0,1
 256 391 256 391 248 391 c 0,2,3
 241 391 241 391 226 382 c 0,4,5
 210 373 210 373 186 324 c 0,6,7
 164 279 164 279 160 258 c 0,8,9
 159 254 159 254 159 248 c 0,10,11
 159 239 159 239 182 229 c 0,12,13
 198 222 198 222 218 215 c 1,14,-1
 222 215 l 2,15,16
 235 215 235 215 259.5 228.5 c 128,-1,17
 284 242 284 242 293 254 c 0,18,19
 306 271 306 271 306 297 c 0,20,21
 306 343 306 343 272 375 c 0,0,1
60 580 m 0,22,23
 71 594 71 594 91 594 c 0,24,25
 100 594 100 594 109 591 c 0,26,27
 132 581 132 581 132 525 c 0,28,29
 132 486 132 486 135 453 c 2,30,-1
 139 413 l 1,31,-1
 161 435 l 2,32,33
 202 473 202 473 245 473 c 0,34,35
 294 473 294 473 339 425 c 0,36,37
 388 372 388 372 388 300 c 0,38,39
 388 211 388 211 317 166 c 0,40,41
 270 135 270 135 226 135 c 0,42,43
 196 135 196 135 169 146 c 0,44,45
 143 156 143 156 112 160 c 0,46,47
 83 165 83 165 78 173 c 0,48,49
 67 188 67 188 60 339 c 0,50,51
 58 368 58 368 55.5 426.5 c 128,-1,52
 53 485 53 485 52 501 c 0,53,54
 50 543 50 543 50 546 c 0,55,56
 50 567 50 567 60 580 c 0,22,23
EndSplineSet
Validated: 1
EndChar

StartChar: c
Encoding: 99 99 56
Width: 392
GlyphClass: 1
Flags: W
LayerCount: 2
Fore
SplineSet
142 461 m 0,0,1
 160 470 160 470 187 470 c 0,2,3
 215 470 215 470 238 460 c 0,4,5
 257 452 257 452 281.5 425 c 128,-1,6
 306 398 306 398 310 382 c 0,7,8
 311 379 311 379 311 373 c 0,9,10
 311 358 311 358 300.5 348.5 c 128,-1,11
 290 339 290 339 273 337 c 0,12,13
 271 337 271 337 268.5 336.5 c 128,-1,14
 266 336 266 336 265 336 c 0,15,16
 253 336 253 336 228 362 c 0,17,18
 204 387 204 387 190 387 c 0,19,20
 177 387 177 387 163 374 c 0,21,22
 131 346 131 346 130 298 c 0,23,24
 130 248 130 248 163 221 c 0,25,26
 180 207 180 207 203 207 c 0,27,28
 224 207 224 207 258 220 c 0,29,30
 288 232 288 232 305 232 c 0,31,32
 319 232 319 232 328 223 c 0,33,34
 338 213 338 213 338 192 c 0,35,36
 338 183 338 183 335 174 c 0,37,38
 327 155 327 155 256 132 c 0,39,40
 232 124 232 124 208 124 c 0,41,42
 136 124 136 124 91 174 c 0,43,44
 68 201 68 201 60 225.5 c 128,-1,45
 52 250 52 250 52 297 c 0,46,47
 52 353 52 353 65 380 c 0,48,49
 76 403 76 403 99.5 427.5 c 128,-1,50
 123 452 123 452 142 461 c 0,0,1
EndSplineSet
Validated: 1
EndChar

StartChar: d
Encoding: 100 100 57
Width: 439
GlyphClass: 1
Flags: W
LayerCount: 2
Fore
SplineSet
226 351 m 0,0,1
 211 356 211 356 197 356 c 0,2,3
 157 356 157 356 143 333 c 0,4,5
 135 321 135 321 135 301 c 0,6,7
 135 278 135 278 146 261 c 0,8,9
 156 245 156 245 176.5 228.5 c 128,-1,10
 197 212 197 212 208 212 c 0,11,12
 251 212 251 212 261 295 c 0,13,14
 263 313 263 313 263 315 c 0,15,16
 263 325 263 325 253 335 c 0,17,18
 241 345 241 345 226 351 c 0,0,1
286 529 m 128,-1,20
 298 541 298 541 315 541 c 0,21,22
 348 541 348 541 354 510 c 0,23,24
 356 501 356 501 369.5 377 c 128,-1,25
 383 253 383 253 387 214 c 0,26,27
 388 207 388 207 388 195 c 0,28,29
 388 164 388 164 367 153 c 0,30,31
 355 147 355 147 345 147 c 0,32,33
 328 147 328 147 315 163 c 2,34,-1
 303 176 l 1,35,-1
 288 161 l 2,36,37
 272 145 272 145 255.5 140 c 128,-1,38
 239 135 239 135 208 135 c 128,-1,39
 177 135 177 135 156.5 144.5 c 128,-1,40
 136 154 136 154 108 180 c 0,41,42
 58 228 58 228 54 292 c 0,43,44
 54 296 54 296 53.5 302 c 128,-1,45
 53 308 53 308 53 310 c 0,46,47
 53 332 53 332 63 356 c 128,-1,48
 73 380 73 380 95.5 401 c 128,-1,49
 118 422 118 422 138 428 c 0,50,51
 154 433 154 433 193 433 c 0,52,53
 238 433 238 433 258 426 c 2,54,-1
 280 419 l 1,55,-1
 276 467 l 2,56,57
 274 497 274 497 274 501 c 0,58,19
 274 517 274 517 286 529 c 128,-1,20
EndSplineSet
Validated: 1
EndChar

StartChar: e
Encoding: 101 101 58
Width: 375
GlyphClass: 1
Flags: W
LayerCount: 2
Fore
SplineSet
229 361 m 0,0,1
 215 375 215 375 189 375 c 0,2,3
 180 375 180 375 176 374 c 0,4,5
 163 371 163 371 163 360 c 0,6,7
 163 346 163 346 181 336 c 0,8,9
 196 327 196 327 215 327 c 0,10,11
 238 327 238 327 240 339 c 0,12,13
 242 348 242 348 229 361 c 0,0,1
137 447 m 0,14,15
 160 454 160 454 194 454 c 0,16,17
 229 454 229 454 248 447 c 0,18,19
 281 433 281 433 302 404 c 128,-1,20
 323 375 323 375 323 342 c 0,21,22
 323 340 323 340 322.5 336 c 128,-1,23
 322 332 322 332 322 330 c 0,24,25
 318 290 318 290 289 266 c 128,-1,26
 260 242 260 242 218 242 c 0,27,28
 201 242 201 242 173 249 c 0,29,30
 161 253 161 253 154 253 c 0,31,32
 150 253 150 253 150 251 c 0,33,34
 150 247 150 247 169 233 c 0,35,36
 191 218 191 218 210 218 c 0,37,38
 213 218 213 218 219.5 218.5 c 128,-1,39
 226 219 226 219 231 219 c 2,40,-1
 248 219 l 2,41,42
 273 219 273 219 282 210 c 0,43,44
 293 201 293 201 293 183 c 0,45,46
 293 160 293 160 276 148 c 0,47,48
 261 137 261 137 219 137 c 0,49,50
 173 137 173 137 147 150 c 0,51,52
 95 176 95 176 67 229 c 0,53,54
 53 256 53 256 53 298 c 0,55,56
 53 326 53 326 56 339 c 128,-1,57
 59 352 59 352 72 378 c 0,58,59
 88 411 88 411 102 425 c 128,-1,60
 116 439 116 439 137 447 c 0,14,15
EndSplineSet
Validated: 1
EndChar

StartChar: f
Encoding: 102 102 59
Width: 390
GlyphClass: 1
Flags: W
LayerCount: 2
Fore
SplineSet
182 527 m 0,0,1
 200 532 200 532 216 532 c 0,2,3
 268 532 268 532 313 492 c 0,4,5
 330 477 330 477 334.5 469.5 c 128,-1,6
 339 462 339 462 339 450 c 0,7,8
 339 412 339 412 307 412 c 0,9,10
 287 412 287 412 260 430 c 0,11,12
 234 449 234 449 222 449 c 0,13,14
 205 449 205 449 192 424.5 c 128,-1,15
 179 400 179 400 179 369 c 0,16,17
 179 351 179 351 182.5 328.5 c 128,-1,18
 186 306 186 306 190 302 c 1,19,-1
 193 302 l 2,20,21
 198 302 198 302 248 306 c 2,22,-1
 303 312 l 1,23,-1
 316 298 l 2,24,25
 327 286 327 286 327 276 c 0,26,27
 327 268 327 268 320 254 c 0,28,29
 307 231 307 231 247 225 c 2,30,-1
 214 222 l 1,31,-1
 217 204 l 2,32,33
 224 174 224 174 238 131 c 0,34,35
 255 80 255 80 255 60 c 0,36,37
 255 46 255 46 246 37 c 0,38,39
 236 27 236 27 218 27 c 128,-1,40
 200 27 200 27 190 37 c 0,41,42
 171 56 171 56 140 176 c 0,43,44
 132 207 132 207 126 214 c 128,-1,45
 120 221 120 221 101 224 c 0,46,47
 81 227 81 227 68 238.5 c 128,-1,48
 55 250 55 250 55 266 c 0,49,50
 55 280 55 280 66.5 292.5 c 128,-1,51
 78 305 78 305 90 305 c 0,52,53
 95 305 95 305 96.5 305.5 c 128,-1,54
 98 306 98 306 99.5 308.5 c 128,-1,55
 101 311 101 311 101 317 c 0,56,57
 101 319 101 319 99 345 c 0,58,59
 98 351 98 351 98 364 c 0,60,61
 98 420 98 420 122.5 468.5 c 128,-1,62
 147 517 147 517 182 527 c 0,0,1
EndSplineSet
Validated: 1
EndChar

StartChar: g
Encoding: 103 103 60
Width: 423
GlyphClass: 1
Flags: W
LayerCount: 2
Fore
SplineSet
188 360 m 0,0,1
 174 367 174 367 169 367 c 0,2,3
 165 367 165 367 154.5 355 c 128,-1,4
 144 343 144 343 138 332 c 0,5,6
 132 322 132 322 132 294 c 0,7,8
 132 263 132 263 139 249 c 0,9,10
 155 218 155 218 197 218 c 0,11,12
 212 218 212 218 218.5 221.5 c 128,-1,13
 225 225 225 225 235 239 c 0,14,15
 251 263 251 263 254 278 c 0,16,17
 255 281 255 281 255 286 c 0,18,19
 255 297 255 297 229 324 c 0,20,21
 198 355 198 355 188 360 c 0,0,1
121 434 m 0,22,23
 140 444 140 444 168 444 c 0,24,25
 200 444 200 444 225 431 c 0,26,27
 243 422 243 422 249 422 c 0,28,29
 252 422 252 422 254 426 c 0,30,31
 257 432 257 432 271 439 c 0,32,33
 279 443 279 443 288 443 c 0,34,35
 318 443 318 443 342 367 c 0,36,37
 370 280 370 280 371 179 c 2,38,-1
 371 153 l 2,39,40
 371 116 371 116 358 91 c 0,41,42
 333 43 333 43 279 19 c 0,43,44
 253 7 253 7 236 7 c 0,45,46
 220 7 220 7 207 17 c 0,47,48
 193 28 193 28 193 45 c 0,49,50
 193 60 193 60 203.5 72 c 128,-1,51
 214 84 214 84 231 87 c 0,52,53
 248 91 248 91 269 112 c 0,54,55
 292 134 292 134 292 152 c 2,56,-1
 292 171 l 1,57,-1
 269 155 l 2,58,59
 247 140 247 140 210 136 c 1,60,-1
 196 136 l 2,61,62
 140 136 140 136 98 172 c 0,63,64
 69 197 69 197 60.5 219.5 c 128,-1,65
 52 242 52 242 52 290 c 0,66,67
 52 346 52 346 64 369 c 0,68,69
 87 416 87 416 121 434 c 0,22,23
EndSplineSet
Validated: 1
EndChar

StartChar: h
Encoding: 104 104 61
Width: 446
GlyphClass: 1
Flags: W
LayerCount: 2
Fore
SplineSet
64 580 m 0,0,1
 75 594 75 594 92 594 c 0,2,3
 108 594 108 594 120 581 c 0,4,5
 129 572 129 572 140 527 c 128,-1,6
 151 482 151 482 151 454 c 0,7,8
 151 432 151 432 158 432 c 0,9,10
 163 432 163 432 179 443 c 0,11,12
 205 460 205 460 246 460 c 0,13,14
 276 460 276 460 295 450 c 0,15,16
 395 399 395 399 395 233 c 0,17,18
 395 142 395 142 373 130 c 0,19,20
 363 125 363 125 354 125 c 0,21,22
 337 125 337 125 324 138 c 0,23,24
 313 149 313 149 313 168 c 0,25,26
 313 188 313 188 314 203 c 0,27,28
 315 213 315 213 315 233 c 0,29,30
 315 329 315 329 274 365 c 0,31,32
 256 380 256 380 243 380 c 0,33,34
 212 380 212 380 197.5 322 c 128,-1,35
 183 264 183 264 182 201 c 0,36,37
 182 173 182 173 180 166 c 128,-1,38
 178 159 178 159 169 151 c 0,39,40
 156 141 156 141 143 141 c 0,41,42
 129 141 129 141 118 152 c 0,43,44
 106 163 106 163 98 205.5 c 128,-1,45
 90 248 90 248 79 364 c 0,46,47
 68 476 68 476 61 509 c 0,48,49
 54 540 54 540 54 554 c 0,50,51
 54 567 54 567 64 580 c 0,0,1
EndSplineSet
Validated: 1
EndChar

StartChar: i
Encoding: 105 105 62
Width: 226
GlyphClass: 1
Flags: W
LayerCount: 2
Fore
SplineSet
92 462 m 0,0,1
 103 476 103 476 122 476 c 0,2,3
 140 476 140 476 151 464 c 0,4,5
 159 455 159 455 159 423 c 2,6,-1
 159 399 l 1,7,-1
 159 388 l 2,8,9
 159 335 159 335 168 259 c 0,10,11
 175 202 175 202 175 183 c 0,12,13
 175 168 175 168 171 161 c 0,14,15
 160 140 160 140 138 140 c 0,16,17
 123 140 123 140 112 150 c 0,18,19
 99 160 99 160 90 228 c 0,20,21
 81 298 81 298 81 373 c 0,22,23
 81 425 81 425 82.5 439 c 128,-1,24
 84 453 84 453 92 462 c 0,0,1
69 604 m 0,25,26
 83 621 83 621 102 621 c 0,27,28
 120 621 120 621 132 606 c 0,29,30
 143 591 143 591 143 580 c 0,31,32
 143 567 143 567 130.5 554.5 c 128,-1,33
 118 542 118 542 101 539 c 0,34,35
 97 538 97 538 91 538 c 0,36,37
 80 538 80 538 69 549 c 0,38,39
 56 562 56 562 56 575 c 128,-1,40
 56 588 56 588 69 604 c 0,25,26
EndSplineSet
Validated: 1
EndChar

StartChar: j
Encoding: 106 106 63
Width: 298
GlyphClass: 1
Flags: W
LayerCount: 2
Fore
SplineSet
158 482 m 0,0,1
 191 487 191 487 202 487 c 0,2,3
 220 487 220 487 231 477 c 0,4,5
 244 465 244 465 244 451 c 0,6,7
 244 423 244 423 209 409 c 2,8,-1
 188 401 l 1,9,-1
 191 368 l 2,10,11
 198 299 198 299 198 175 c 0,12,13
 198 94 198 94 194 77 c 0,14,15
 182 13 182 13 145 -19 c 0,16,17
 122 -39 122 -39 107 -39 c 0,18,19
 98 -39 98 -39 87 -33 c 0,20,21
 65 -23 65 -23 65 -5 c 0,22,23
 65 12 65 12 83 31 c 0,24,25
 105 55 105 55 111 82.5 c 128,-1,26
 117 110 117 110 118 184 c 2,27,-1
 118 204 l 2,28,29
 118 274 118 274 112 330 c 0,30,31
 107 372 107 372 104.5 380 c 128,-1,32
 102 388 102 388 94 388 c 0,33,34
 79 388 79 388 67 400 c 128,-1,35
 55 412 55 412 55 427 c 0,36,37
 55 451 55 451 74.5 461.5 c 128,-1,38
 94 472 94 472 158 482 c 0,0,1
EndSplineSet
Validated: 1
EndChar

StartChar: k
Encoding: 107 107 64
Width: 385
GlyphClass: 1
Flags: W
LayerCount: 2
Fore
SplineSet
72 589 m 128,-1,1
 85 594 85 594 88 594 c 0,2,3
 90 594 90 594 103 589 c 0,4,5
 116 583 116 583 121 575 c 0,6,7
 124 569 124 569 132 473 c 0,8,9
 138 378 138 378 140 373 c 0,10,11
 140 371 140 371 142 371 c 0,12,13
 147 371 147 371 171 392 c 0,14,15
 200 419 200 419 239.5 444.5 c 128,-1,16
 279 470 279 470 290 470 c 0,17,18
 302 470 302 470 315 457 c 128,-1,19
 328 444 328 444 328 432 c 0,20,21
 328 416 328 416 321 407 c 128,-1,22
 314 398 314 398 287 379 c 0,23,24
 261 361 261 361 237.5 340 c 128,-1,25
 214 319 214 319 214 315 c 0,26,27
 214 313 214 313 261 277 c 0,28,29
 333 223 333 223 333 198 c 0,30,31
 333 186 333 186 320 174 c 0,32,33
 307 161 307 161 296 161 c 0,34,35
 276 161 276 161 220 206 c 0,36,37
 206 217 206 217 190 229 c 128,-1,38
 174 241 174 241 164.5 248.5 c 128,-1,39
 155 256 155 256 153 258 c 0,40,41
 149 260 149 260 148 260 c 0,42,43
 145 260 145 260 145 246 c 0,44,45
 145 226 145 226 146 209 c 0,46,47
 147 193 147 193 147 173 c 0,48,49
 147 150 147 150 137 139 c 0,50,51
 126 125 126 125 114 125 c 0,52,53
 112 125 112 125 109 125.5 c 128,-1,54
 106 126 106 126 105 126 c 0,55,56
 77 128 77 128 71 150.5 c 128,-1,57
 65 173 65 173 60 295 c 0,58,59
 55 437 55 437 51 499 c 0,60,61
 50 513 50 513 50 534 c 0,62,63
 50 562 50 562 54.5 573 c 128,-1,0
 59 584 59 584 72 589 c 128,-1,1
EndSplineSet
Validated: 1
EndChar

StartChar: l
Encoding: 108 108 65
Width: 211
GlyphClass: 1
Flags: W
LayerCount: 2
Fore
SplineSet
67 587 m 0,0,1
 78 598 78 598 92 598 c 0,2,3
 105 598 105 598 118 588 c 0,4,5
 128 581 128 581 129.5 570.5 c 128,-1,6
 131 560 131 560 131 512 c 0,7,8
 131 396 131 396 152 252 c 0,9,10
 161 194 161 194 161 177 c 0,11,12
 161 175 161 175 160 173 c 2,13,-1
 160 171 l 2,14,15
 157 162 157 162 143.5 151 c 128,-1,16
 130 140 130 140 121 140 c 0,17,18
 110 140 110 140 98 152 c 0,19,20
 89 159 89 159 85 171.5 c 128,-1,21
 81 184 81 184 74 223 c 0,22,23
 50 382 50 382 50 505 c 0,24,25
 50 531 50 531 51 540 c 0,26,27
 55 575 55 575 67 587 c 0,0,1
EndSplineSet
Validated: 1
EndChar

StartChar: m
Encoding: 109 109 66
Width: 644
GlyphClass: 1
Flags: W
LayerCount: 2
Fore
SplineSet
60 469 m 0,0,1
 72 481 72 481 88 481 c 0,2,3
 105 481 105 481 116 469 c 0,4,5
 126 459 126 459 130 432 c 2,6,-1
 134 408 l 1,7,-1
 153 425 l 2,8,9
 194 464 194 464 239 464 c 0,10,11
 259 464 259 464 276 457 c 0,12,13
 308 443 308 443 337 398 c 2,14,-1
 355 371 l 1,15,-1
 377 392 l 2,16,17
 392 408 392 408 415 418.5 c 128,-1,18
 438 429 438 429 456 429 c 0,19,20
 484 429 484 429 515 400.5 c 128,-1,21
 546 372 546 372 564 331 c 0,22,23
 591 265 591 265 591 205 c 0,24,25
 591 175 591 175 578 163 c 0,26,27
 566 151 566 151 553 151 c 0,28,29
 538 151 538 151 523 166 c 0,30,31
 510 179 510 179 510 188 c 0,32,33
 510 191 510 191 511 193 c 0,34,35
 512 196 512 196 512 204 c 0,36,37
 512 232 512 232 495.5 277.5 c 128,-1,38
 479 323 479 323 463 338 c 0,39,40
 455 345 455 345 452 345 c 128,-1,41
 449 345 449 345 439 339 c 0,42,43
 423 329 423 329 404 280.5 c 128,-1,44
 385 232 385 232 385 203 c 0,45,46
 385 192 385 192 377 177 c 128,-1,47
 369 162 369 162 362 159 c 0,48,49
 353 156 353 156 344 156 c 0,50,51
 324 156 324 156 314 168 c 0,52,53
 303 181 303 181 298 242 c 0,54,55
 293 293 293 293 285.5 318.5 c 128,-1,56
 278 344 278 344 259 366 c 0,57,58
 245 382 245 382 235 382 c 0,59,60
 224 382 224 382 200 356.5 c 128,-1,61
 176 331 176 331 165 307 c 0,62,63
 153 282 153 282 148 222 c 0,64,65
 145 181 145 181 142.5 170.5 c 128,-1,66
 140 160 140 160 130 152 c 0,67,68
 116 141 116 141 103 141 c 128,-1,69
 90 141 90 141 78 153 c 0,70,71
 69 161 69 161 67 170.5 c 128,-1,72
 65 180 65 180 65 211 c 0,73,74
 65 262 65 262 60 315 c 0,75,76
 51 430 51 430 51 445 c 128,-1,77
 51 460 51 460 60 469 c 0,0,1
EndSplineSet
Validated: 1
EndChar

StartChar: n
Encoding: 110 110 67
Width: 431
GlyphClass: 1
Flags: W
LayerCount: 2
Fore
SplineSet
187 481 m 0,0,1
 202 490 202 490 224 490 c 0,2,3
 250 490 250 490 277.5 477 c 128,-1,4
 305 464 305 464 320 442 c 0,5,6
 360 389 360 389 374 321 c 0,7,8
 380 292 380 292 380 248 c 0,9,10
 380 174 380 174 368 152 c 0,11,12
 357 130 357 130 333 130 c 0,13,14
 310 130 310 130 299 151 c 0,15,16
 294 158 294 158 294 171 c 128,-1,17
 294 184 294 184 298 208 c 0,18,19
 302 242 302 242 302 250 c 0,20,21
 302 259 302 259 298 285 c 0,22,23
 290 329 290 329 268.5 368 c 128,-1,24
 247 407 247 407 231 407 c 2,25,-1
 230 407 l 2,26,27
 220 405 220 405 192.5 366.5 c 128,-1,28
 165 328 165 328 159 307 c 0,29,30
 155 292 155 292 151 233 c 0,31,32
 147 170 147 170 146 168 c 0,33,34
 144 159 144 159 131 150.5 c 128,-1,35
 118 142 118 142 107 142 c 0,36,37
 103 142 103 142 101 143 c 0,38,39
 83 148 83 148 77.5 160.5 c 128,-1,40
 72 173 72 173 69 214 c 0,41,42
 66 264 66 264 58 328 c 0,43,44
 51 381 51 381 51 416 c 0,45,46
 51 447 51 447 59 458.5 c 128,-1,47
 67 470 67 470 87 470 c 0,48,49
 103 470 103 470 115.5 460.5 c 128,-1,50
 128 451 128 451 128 438 c 0,51,52
 128 430 128 430 130 430 c 0,53,54
 134 430 134 430 153 451 c 0,55,56
 166 465 166 465 187 481 c 0,0,1
EndSplineSet
Validated: 1
EndChar

StartChar: o
Encoding: 111 111 68
Width: 427
GlyphClass: 1
Flags: W
LayerCount: 2
Fore
SplineSet
261 378 m 0,0,1
 244 396 244 396 236.5 399.5 c 128,-1,2
 229 403 229 403 207 403 c 0,3,4
 186 403 186 403 179 400.5 c 128,-1,5
 172 398 172 398 161 386 c 0,6,7
 132 355 132 355 132 304 c 0,8,9
 132 285 132 285 145 263 c 128,-1,10
 158 241 158 241 174 232 c 0,11,12
 183 227 183 227 205 227 c 0,13,14
 240 227 240 227 260 237 c 0,15,16
 297 256 297 256 297 299 c 0,17,18
 297 344 297 344 261 378 c 0,0,1
145 476 m 0,19,20
 168 486 168 486 203 486 c 0,21,22
 233 486 233 486 260 478 c 0,23,24
 283 471 283 471 310.5 442.5 c 128,-1,25
 338 414 338 414 358 378 c 0,26,27
 375 344 375 344 375 305 c 0,28,29
 375 235 375 235 343 195 c 0,30,31
 330 180 330 180 300 165 c 0,32,33
 262 146 262 146 209 146 c 0,34,35
 176 146 176 146 155 153 c 0,36,37
 132 161 132 161 106.5 184 c 128,-1,38
 81 207 81 207 66 235 c 0,39,40
 53 261 53 261 53 292 c 2,41,-1
 53 308 l 2,42,43
 54 355 54 355 65 384 c 0,44,45
 75 411 75 411 99.5 438.5 c 128,-1,46
 124 466 124 466 145 476 c 0,19,20
EndSplineSet
Validated: 1
EndChar

StartChar: p
Encoding: 112 112 69
Width: 435
GlyphClass: 1
Flags: W
LayerCount: 2
Fore
SplineSet
266 356 m 0,0,1
 255 367 255 367 246 367 c 0,2,3
 228 367 228 367 195 305 c 0,4,5
 165 248 165 248 165 217 c 0,6,7
 165 210 165 210 169 206 c 0,8,9
 174 202 174 202 191 202 c 0,10,11
 217 202 217 202 244 210 c 0,12,13
 270 217 270 217 286 235 c 128,-1,14
 302 253 302 253 302 273 c 0,15,16
 302 289 302 289 290 316.5 c 128,-1,17
 278 344 278 344 266 356 c 0,0,1
68 453 m 0,18,19
 78 460 78 460 90 460 c 0,20,21
 110 460 110 460 121 446 c 0,22,23
 132 431 132 431 132 399 c 2,24,-1
 132 365 l 1,25,-1
 151 393 l 2,26,27
 188 448 188 448 245 448 c 0,28,29
 289 448 289 448 326 411 c 0,30,31
 381 354 381 354 381 274 c 0,32,33
 381 236 381 236 367 209 c 0,34,35
 322 122 322 122 196 122 c 2,36,-1
 154 122 l 1,37,-1
 154 72 l 1,38,-1
 154 51 l 2,39,40
 154 30 154 30 151.5 23 c 128,-1,41
 149 16 149 16 140 8 c 0,42,43
 128 -3 128 -3 112 -3 c 128,-1,44
 96 -3 96 -3 86 8 c 128,-1,45
 76 19 76 19 68 99 c 0,46,47
 50 287 50 287 50 363 c 0,48,49
 50 440 50 440 68 453 c 0,18,19
EndSplineSet
Validated: 1
EndChar

StartChar: q
Encoding: 113 113 70
Width: 439
GlyphClass: 1
Flags: W
LayerCount: 2
Fore
SplineSet
222 375 m 0,0,1
 210 381 210 381 198 381 c 0,2,3
 171 381 171 381 151.5 353 c 128,-1,4
 132 325 132 325 132 295 c 2,5,-1
 132 287 l 1,6,7
 139 227 139 227 177 208 c 0,8,9
 197 198 197 198 207 198 c 0,10,11
 216 198 216 198 237 210 c 0,12,13
 257 221 257 221 266.5 233 c 128,-1,14
 276 245 276 245 285 269 c 0,15,16
 291 286 291 286 291 291 c 0,17,18
 291 295 291 295 286 305 c 0,19,20
 273 325 273 325 253 347.5 c 128,-1,21
 233 370 233 370 222 375 c 0,0,1
164 458 m 0,22,23
 188 464 188 464 196 464 c 0,24,25
 202 464 202 464 227 459 c 0,26,27
 255 453 255 453 274 439 c 0,28,29
 291 426 291 426 296 426 c 0,30,31
 298 426 298 426 303 432 c 0,32,33
 310 441 310 441 310 445 c 128,-1,34
 310 449 310 449 321.5 452.5 c 128,-1,35
 333 456 333 456 344 456 c 0,36,37
 351 456 351 456 353 455 c 0,38,39
 376 446 376 446 381.5 406.5 c 128,-1,40
 387 367 387 367 388 204 c 2,41,-1
 389 36 l 1,42,-1
 375 24 l 2,43,44
 362 12 362 12 351 12 c 0,45,46
 341 12 341 12 325 26 c 0,47,48
 314 37 314 37 312 46.5 c 128,-1,49
 310 56 310 56 310 98 c 0,50,51
 310 156 310 156 307 156 c 0,52,53
 305 156 305 156 285 143 c 0,54,55
 243 115 243 115 203 115 c 0,56,57
 201 115 201 115 198 115.5 c 128,-1,58
 195 116 195 116 194 116 c 0,59,60
 127 130 127 130 89.5 176.5 c 128,-1,61
 52 223 52 223 52 298 c 0,62,63
 52 357 52 357 82 400.5 c 128,-1,64
 112 444 112 444 164 458 c 0,22,23
EndSplineSet
Validated: 1
EndChar

StartChar: r
Encoding: 114 114 71
Width: 349
GlyphClass: 1
Flags: W
LayerCount: 2
Fore
SplineSet
72 465 m 0,0,1
 80 468 80 468 88 468 c 0,2,3
 103 468 103 468 115.5 457.5 c 128,-1,4
 128 447 128 447 131 431 c 2,5,-1
 134 414 l 1,6,-1
 153 423 l 2,7,8
 183 437 183 437 206 437 c 0,9,10
 218 437 218 437 233 434 c 0,11,12
 255 430 255 430 272.5 418 c 128,-1,13
 290 406 290 406 295 392 c 0,14,15
 296 390 296 390 296 384 c 0,16,17
 296 357 296 357 271 346 c 0,18,19
 261 342 261 342 257 342 c 0,20,21
 250 342 250 342 236 348 c 0,22,23
 215 356 215 356 207 356 c 0,24,25
 194 356 194 356 181 340 c 0,26,27
 161 315 161 315 154 293 c 128,-1,28
 147 271 147 271 147 229 c 2,29,-1
 147 218 l 1,30,-1
 147 192 l 2,31,32
 147 156 147 156 138 141 c 0,33,34
 129 125 129 125 116 125 c 0,35,36
 115 125 115 125 111.5 125.5 c 128,-1,37
 108 126 108 126 106 126 c 0,38,39
 79 128 79 128 71.5 147 c 128,-1,40
 64 166 64 166 60 249 c 0,41,42
 59 268 59 268 57 300.5 c 128,-1,43
 55 333 55 333 54 356.5 c 128,-1,44
 53 380 53 380 52 391 c 0,45,46
 51 401 51 401 51 417 c 0,47,48
 51 457 51 457 72 465 c 0,0,1
EndSplineSet
Validated: 1
EndChar

StartChar: s
Encoding: 115 115 72
Width: 353
GlyphClass: 1
Flags: W
LayerCount: 2
Fore
SplineSet
114 507 m 0,0,1
 142 522 142 522 167 522 c 128,-1,2
 192 522 192 522 224 505 c 0,3,4
 280 476 280 476 280 444 c 0,5,6
 280 429 280 429 267 416 c 128,-1,7
 254 403 254 403 242 403 c 0,8,9
 225 403 225 403 196 427 c 0,10,11
 182 440 182 440 166 440 c 0,12,13
 153 440 153 440 144.5 430.5 c 128,-1,14
 136 421 136 421 136 404 c 0,15,16
 136 359 136 359 180 344 c 0,17,18
 236 324 236 324 261.5 305 c 128,-1,19
 287 286 287 286 295 260 c 0,20,21
 300 240 300 240 300 227 c 0,22,23
 300 212 300 212 292 193 c 0,24,25
 279 161 279 161 250.5 143 c 128,-1,26
 222 125 222 125 186 125 c 0,27,28
 158 125 158 125 131 135 c 0,29,30
 105 144 105 144 94.5 155 c 128,-1,31
 84 166 84 166 84 184 c 0,32,33
 84 201 84 201 96.5 211.5 c 128,-1,34
 109 222 109 222 126 222 c 0,35,36
 140 222 140 222 151 215 c 0,37,38
 165 207 165 207 182 207 c 0,39,40
 197 207 197 207 207.5 213 c 128,-1,41
 218 219 218 219 218 228 c 0,42,43
 218 245 218 245 168 260 c 0,44,45
 128 271 128 271 105.5 290.5 c 128,-1,46
 83 310 83 310 66 346 c 0,47,48
 53 373 53 373 53 404 c 0,49,50
 53 474 53 474 114 507 c 0,0,1
EndSplineSet
Validated: 1
EndChar

StartChar: t
Encoding: 116 116 73
Width: 366
GlyphClass: 1
Flags: W
LayerCount: 2
Fore
SplineSet
156 551 m 0,0,1
 169 563 169 563 179 563 c 0,2,3
 186 563 186 563 196 557 c 0,4,5
 209 550 209 550 213.5 543 c 128,-1,6
 218 536 218 536 218 521 c 0,7,8
 218 510 218 510 217 503 c 2,9,-1
 214 470 l 1,10,-1
 251 470 l 2,11,12
 275 470 275 470 283.5 467.5 c 128,-1,13
 292 465 292 465 300 457 c 0,14,15
 313 444 313 444 313 427 c 0,16,17
 313 409 313 409 299 398 c 0,18,19
 287 388 287 388 248 388 c 2,20,-1
 210 388 l 1,21,-1
 210 343 l 2,22,23
 210 188 210 188 250 182 c 0,24,25
 261 180 261 180 271.5 167 c 128,-1,26
 282 154 282 154 282 142 c 0,27,28
 282 132 282 132 268 116 c 0,29,30
 256 104 256 104 241 104 c 0,31,32
 239 104 239 104 234.5 104.5 c 128,-1,33
 230 105 230 105 227 105 c 0,34,35
 202 107 202 107 186 119.5 c 128,-1,36
 170 132 170 132 156 161 c 0,37,38
 134 206 134 206 131 316 c 2,39,-1
 130 387 l 1,40,-1
 115 390 l 2,41,42
 103 393 103 393 90 393 c 0,43,44
 78 393 78 393 66.5 405.5 c 128,-1,45
 55 418 55 418 55 431 c 0,46,47
 55 470 55 470 105 470 c 2,48,-1
 109 470 l 2,49,50
 128 470 128 470 131.5 475.5 c 128,-1,51
 135 481 135 481 140 516 c 0,52,53
 143 541 143 541 156 551 c 0,0,1
EndSplineSet
Validated: 1
EndChar

StartChar: u
Encoding: 117 117 74
Width: 430
GlyphClass: 1
Flags: W
LayerCount: 2
Fore
SplineSet
316 459 m 0,0,1
 325 465 325 465 333 465 c 0,2,3
 344 465 344 465 358 453 c 128,-1,4
 372 441 372 441 375.5 409 c 128,-1,5
 379 377 379 377 380 265 c 2,6,-1
 380 145 l 1,7,-1
 367 132 l 2,8,9
 355 120 355 120 340 120 c 0,10,11
 324 120 324 120 312 132 c 2,12,-1
 301 144 l 1,13,-1
 278 134 l 2,14,15
 260 125 260 125 234 125 c 0,16,17
 219 125 219 125 208 126 c 0,18,19
 167 128 167 128 145 137 c 128,-1,20
 123 146 123 146 101 170 c 0,21,22
 73 201 73 201 62 234.5 c 128,-1,23
 51 268 51 268 51 329 c 2,24,-1
 51 357 l 2,25,26
 53 409 53 409 54.5 420.5 c 128,-1,27
 56 432 56 432 65 441 c 0,28,29
 78 455 78 455 97 455 c 0,30,31
 120 455 120 455 125 440 c 128,-1,32
 130 425 130 425 130 357 c 0,33,34
 130 300 130 300 132 284.5 c 128,-1,35
 134 269 134 269 143 251 c 0,36,37
 167 203 167 203 216 203 c 0,38,39
 236 203 236 203 253 214 c 0,40,41
 266 221 266 221 281 252 c 0,42,43
 294 279 294 279 294 320 c 2,44,-1
 294 359 l 2,45,46
 294 367 294 367 293.5 379.5 c 128,-1,47
 293 392 293 392 293 396 c 0,48,49
 293 429 293 429 297.5 440 c 128,-1,50
 302 451 302 451 316 459 c 0,0,1
EndSplineSet
Validated: 1
EndChar

StartChar: v
Encoding: 118 118 75
Width: 436
GlyphClass: 1
Flags: W
LayerCount: 2
Fore
SplineSet
66 462 m 0,0,1
 80 476 80 476 92 476 c 0,2,3
 121 476 121 476 150 398 c 0,4,5
 208 243 208 243 213 243 c 128,-1,6
 218 243 218 243 218 249 c 0,7,8
 218 252 218 252 246 314 c 0,9,10
 274 374 274 374 290 413 c 0,11,12
 306 450 306 450 317.5 462.5 c 128,-1,13
 329 475 329 475 346 475 c 0,14,15
 383 475 383 475 383 441 c 0,16,17
 383 425 383 425 359 371 c 0,18,19
 322 288 322 288 305 246 c 0,20,21
 278 182 278 182 264 159.5 c 128,-1,22
 250 137 250 137 234 130 c 0,23,24
 222 126 222 126 216 126 c 0,25,26
 182 126 182 126 148 186 c 0,27,28
 134 211 134 211 95.5 311.5 c 128,-1,29
 57 412 57 412 55 430 c 0,30,31
 55 431 55 431 54.5 434 c 128,-1,32
 54 437 54 437 54 439 c 0,33,34
 54 451 54 451 66 462 c 0,0,1
EndSplineSet
Validated: 1
EndChar

StartChar: w
Encoding: 119 119 76
Width: 569
GlyphClass: 1
Flags: W
LayerCount: 2
Fore
SplineSet
453 451 m 0,0,1
 465 460 465 460 477 460 c 0,2,3
 493 460 493 460 505.5 447 c 128,-1,4
 518 434 518 434 518 416 c 0,5,6
 518 410 518 410 517 407 c 0,7,8
 497 322 497 322 494 285 c 0,9,10
 485 197 485 197 472.5 168.5 c 128,-1,11
 460 140 460 140 431 140 c 0,12,13
 410 140 410 140 391.5 160.5 c 128,-1,14
 373 181 373 181 338 242 c 0,15,16
 302 305 302 305 298 305 c 0,17,18
 295 305 295 305 286 276 c 0,19,20
 276 242 276 242 255 201 c 128,-1,21
 234 160 234 160 223 151 c 0,22,23
 209 140 209 140 188 140 c 0,24,25
 161 140 161 140 145 165.5 c 128,-1,26
 129 191 129 191 86 301 c 0,27,28
 53 384 53 384 53 403 c 0,29,30
 53 416 53 416 66 429 c 0,31,32
 76 439 76 439 90 439 c 0,33,34
 107 439 107 439 120 426 c 0,35,36
 133 411 133 411 133 406 c 0,37,38
 134 397 134 397 161 332.5 c 128,-1,39
 188 268 188 268 192 268 c 0,40,41
 197 270 197 270 218 330 c 0,42,43
 240 395 240 395 255.5 417 c 128,-1,44
 271 439 271 439 294 439 c 0,45,46
 310 439 310 439 323.5 423 c 128,-1,47
 337 407 337 407 368 354 c 0,48,49
 403 293 403 293 411 293 c 0,50,51
 417 293 417 293 417 321 c 0,52,53
 417 348 417 348 430 395.5 c 128,-1,54
 443 443 443 443 453 451 c 0,0,1
EndSplineSet
Validated: 1
EndChar

StartChar: x
Encoding: 120 120 77
Width: 364
GlyphClass: 1
Flags: W
LayerCount: 2
Fore
SplineSet
60 461 m 0,0,1
 68 470 68 470 88 470 c 0,2,3
 106 470 106 470 125 450 c 128,-1,4
 144 430 144 430 158.5 410.5 c 128,-1,5
 173 391 173 391 180 391 c 0,6,7
 182 391 182 391 184 393 c 0,8,9
 191 398 191 398 191 406 c 0,10,11
 191 413 191 413 214 436 c 0,12,13
 230 452 230 452 237 456 c 128,-1,14
 244 460 244 460 257 460 c 0,15,16
 277 460 277 460 286 448 c 0,17,18
 294 437 294 437 294 424 c 0,19,20
 294 404 294 404 270 376 c 0,21,22
 247 350 247 350 237 327 c 2,23,-1
 228 307 l 1,24,-1
 269 248 l 2,25,26
 310 188 310 188 310 170 c 0,27,28
 310 157 310 157 296 146 c 0,29,30
 283 136 283 136 271 136 c 0,31,32
 245 136 245 136 206 194 c 0,33,34
 183 228 183 228 179 228 c 0,35,36
 177 228 177 228 153 191 c 0,37,38
 126 148 126 148 119 140.5 c 128,-1,39
 112 133 112 133 96 133 c 0,40,41
 57 133 57 133 57 171 c 0,42,43
 57 185 57 185 66.5 203.5 c 128,-1,44
 76 222 76 222 119 293 c 2,45,-1
 129 309 l 1,46,-1
 100 349 l 2,47,48
 93 359 93 359 84.5 371 c 128,-1,49
 76 383 76 383 69 392 c 128,-1,50
 62 401 62 401 61 403 c 0,51,52
 51 416 51 416 51 434 c 128,-1,53
 51 452 51 452 60 461 c 0,0,1
EndSplineSet
Validated: 1
EndChar

StartChar: y
Encoding: 121 121 78
Width: 451
GlyphClass: 1
Flags: W
LayerCount: 2
Fore
SplineSet
308 441 m 0,0,1
 320 453 320 453 335 453 c 0,2,3
 360 453 360 453 372.5 421 c 128,-1,4
 385 389 385 389 394 302 c 0,5,6
 400 250 400 250 400 209 c 0,7,8
 400 143 400 143 380 95 c 0,9,10
 378 91 378 91 378 83 c 0,11,12
 378 77 378 77 358 60 c 128,-1,13
 338 43 338 43 317 31 c 0,14,15
 288 15 288 15 263 15 c 0,16,17
 239 15 239 15 226 30 c 0,18,19
 214 45 214 45 214 58 c 128,-1,20
 214 71 214 71 224 82 c 0,21,22
 234 95 234 95 251 95 c 128,-1,23
 268 95 268 95 289 110 c 128,-1,24
 310 125 310 125 317 141 c 0,25,26
 322 154 322 154 322 157 c 128,-1,27
 322 160 322 160 319 160 c 0,28,29
 312 160 312 160 290 148 c 0,30,31
 253 129 253 129 217 129 c 0,32,33
 133 129 133 129 85 219 c 0,34,35
 52 279 52 279 52 355 c 0,36,37
 52 418 52 418 77 437 c 0,38,39
 88 447 88 447 99 447 c 0,40,41
 111 447 111 447 126 432 c 0,42,43
 139 419 139 419 139 410 c 0,44,45
 139 408 139 408 137 392 c 0,46,47
 133 362 133 362 133 349 c 0,48,49
 133 277 133 277 177 233 c 0,50,51
 200 210 200 210 211 210 c 0,52,53
 218 210 218 210 223 211 c 0,54,55
 244 215 244 215 255 222.5 c 128,-1,56
 266 230 266 230 279 251 c 0,57,58
 289 268 289 268 291.5 282.5 c 128,-1,59
 294 297 294 297 295 352 c 0,60,61
 297 405 297 405 299 419 c 128,-1,62
 301 433 301 433 308 441 c 0,0,1
EndSplineSet
Validated: 1
EndChar

StartChar: z
Encoding: 122 122 79
Width: 388
GlyphClass: 1
Flags: W
LayerCount: 2
Fore
SplineSet
67 483 m 0,0,1
 77 494 77 494 97 494 c 0,2,3
 101 494 101 494 143 492 c 0,4,5
 261 486 261 486 280 468 c 0,6,7
 293 456 293 456 293 433 c 0,8,9
 293 413 293 413 283 392 c 2,10,-1
 273 370 l 1,11,-1
 290 370 l 2,12,13
 310 370 310 370 323 357 c 128,-1,14
 336 344 336 344 336 327 c 0,15,16
 336 312 336 312 323 300 c 0,17,18
 308 288 308 288 260 284 c 2,19,-1
 210 281 l 1,20,-1
 192 259 l 2,21,22
 174 237 174 237 174 233 c 0,23,24
 174 231 174 231 205.5 231 c 128,-1,25
 237 231 237 231 273 226.5 c 128,-1,26
 309 222 309 222 319 210 c 0,27,28
 329 197 329 197 329 184 c 128,-1,29
 329 171 329 171 318 158 c 2,30,-1
 306 146 l 1,31,-1
 199 149 l 2,32,33
 111 151 111 151 88 156 c 128,-1,34
 65 161 65 161 56 180 c 0,35,36
 51 190 51 190 51 197 c 0,37,38
 51 213 51 213 87 259 c 0,39,40
 114 292 114 292 114 300 c 0,41,42
 114 302 114 302 113 302 c 0,43,44
 99 307 99 307 89 319 c 128,-1,45
 79 331 79 331 79 343 c 0,46,47
 79 382 79 382 120 382 c 0,48,49
 133 382 133 382 146 378 c 0,50,51
 160 373 160 373 168 373 c 0,52,53
 173 373 173 373 183 383 c 0,54,55
 195 397 195 397 195 401 c 0,56,57
 195 407 195 407 114 415 c 0,58,59
 77 418 77 418 67 428 c 0,60,61
 55 438 55 438 55 454 c 0,62,63
 55 471 55 471 67 483 c 0,0,1
EndSplineSet
Validated: 1
EndChar

StartChar: plus
Encoding: 43 43 81
Width: 317
Flags: W
LayerCount: 2
Fore
SplineSet
197.674773006 350.854663323 m 1,0,1
 251.715428446 349.17168286 251.715428446 349.17168286 260 328 c 0,2,3
 264 319 264 319 264 308 c 0,4,5
 264 291 264 291 251 280.5 c 128,-1,6
 238 270 238 270 215 270 c 2,7,-1
 210 270 l 1,8,-1
 203 270 l 2,9,10
 202.794012225 270 202.794012225 270 202.585744973 269.999474003 c 0,11,12
 199.544874858 207.838689414 199.544874858 207.838689414 176.3046875 199.96875 c 0,13,14
 167.127929688 196.391601562 167.127929688 196.391601562 156.140625 196.90234375 c 0,15,16
 139.158203125 197.692382812 139.158203125 197.692382812 129.274414062 211.166015625 c 128,-1,17
 119.389648438 224.639648438 119.389648438 224.639648438 120.458007812 247.615234375 c 2,18,-1
 120.690429688 252.609375 l 1,19,-1
 121.015625 259.602539062 l 2,20,21
 121.075047371 260.87969438 121.075047371 260.87969438 121.118304164 262.245517945 c 1,22,23
 98.44535722 259 98.44535722 259 92 259 c 0,24,25
 80 259 80 259 68 268 c 0,26,27
 51 280 51 280 51 301 c 0,28,29
 51 319 51 319 65 330 c 0,30,31
 79 340 79 340 98 342 c 0,32,33
 106.803583135 342 106.803583135 342 116.948049938 343.072706934 c 1,34,35
 114.893552953 364.742783339 114.893552953 364.742783339 115.184570312 370.993164062 c 0,36,37
 115.7421875 382.98046875 115.7421875 382.98046875 125.290039062 394.549804688 c 0,38,39
 138.06640625 410.973632812 138.06640625 410.973632812 159.043945312 409.998046875 c 0,40,41
 177.024414062 409.161132812 177.024414062 409.161132812 187.362304688 394.665039062 c 0,42,43
 196.701171875 380.215820312 196.701171875 380.215820312 197.81640625 361.143554688 c 0,44,45
 197.58721031 356.217116863 197.58721031 356.217116863 197.674773006 350.854663323 c 1,0,1
EndSplineSet
Validated: 524321
EndChar

StartChar: percent
Encoding: 37 37 82
Width: 497
Flags: WO
LayerCount: 2
Fore
SplineSet
437 237 m 4,20,21
 437 240 437 240 432 252 c 0,2,3
 422 276 422 276 406 287 c 2,4,-1
 393 296 l 1,5,6
 389 299 389 299 385 300.5 c 128,-1,7
 381 302 381 302 378 301 c 0,8,9
 357 301 357 301 342.5 284 c 0,10,11
 326 265 326 265 326 245 c 0,12,13
 326 223 326 223 344 202 c 0,14,15
 369 175 369 175 386 181 c 0,16,17
 410 189 410 189 421 194.5 c 0,18,19
 437 202 437 202 437 237 c 4,20,21
130 550 m 1,22,-1
 130 550 l 1,23,24
 129 550 129 550 123 552 c 128,-1,25
 117 554 117 554 114 553 c 0,26,27
 80 552 80 552 70 511 c 0,28,29
 69 507 69 507 69 499 c 0,30,31
 68 491 68 491 68 490 c 0,32,33
 68 465 68 465 83.5 445 c 0,34,35
 97 427 97 427 124 427 c 0,36,37
 152 427 152 427 168.5 445.5 c 0,38,39
 187 466 187 466 184 492 c 1,40,41
 188 520 188 520 158 537 c 0,42,43
 146 543 146 543 140 546 c 2,44,-1
 130 550 l 1,22,-1
361.288085938 558.099609375 m 0,45,46
 372.083984375 561.004882812 372.083984375 561.004882812 383.842773438 558.610351562 c 0,47,48
 394.622070312 556.416015625 394.622070312 556.416015625 400.8828125 552.080078125 c 0,49,50
 408.124023438 547.544921875 408.124023438 547.544921875 412 534 c 128,-1,51
 415.875 520.454101562 415.875 520.454101562 413.681640625 509.674804688 c 0,52,53
 412.68359375 504.775390625 412.68359375 504.775390625 411.3046875 503.015625 c 0,54,55
 404.193359375 488.134765625 404.193359375 488.134765625 326.188476562 388.186523438 c 128,-1,56
 248.18359375 288.23828125 248.18359375 288.23828125 205.456054688 238.766601562 c 128,-1,57
 162.729492188 189.295898438 162.729492188 189.295898438 140.90234375 172.30859375 c 128,-1,58
 119.07421875 155.321289062 119.07421875 155.321289062 103.396484375 158.512695312 c 128,-1,59
 87.7177734375 161.704101562 87.7177734375 161.704101562 79.9130859375 173.498046875 c 0,60,61
 71.3291015625 186.470703125 71.3291015625 186.470703125 73.72265625 198.229492188 c 0,62,63
 77.9111328125 218.807617188 77.9111328125 218.807617188 136.38671875 285.483398438 c 0,64,65
 199.198242188 358.419921875 199.198242188 358.419921875 272.676757812 453.676757812 c 0,66,67
 349.112304688 553.434570312 349.112304688 553.434570312 361.288085938 558.099609375 c 0,45,46
EndSplineSet
EndChar
